<svg width="20" height="24" viewBox="0 0 20 24" fill="none" xmlns="http://www.w3.org/2000/svg">
<path d="M8.51562 14.0365C8.50694 14.0625 8.45269 14.0603 8.35286 14.0299C8.25304 13.9996 8.11632 13.9497 7.94271 13.8802L7.68229 13.763C7.30035 13.5894 6.92274 13.3767 6.54948 13.125C6.48872 13.0816 6.31076 12.9449 6.01562 12.7148C5.72049 12.4848 5.55556 12.3611 5.52083 12.3438C4.93924 13.2378 4.35764 14.0234 3.77604 14.7005C3.07292 15.5252 2.61719 16.0026 2.40885 16.1328C2.37413 16.1502 2.2895 16.1675 2.15495 16.1849C2.0204 16.2023 1.9401 16.2023 1.91406 16.1849C1.96615 16.1502 2.32205 15.7509 2.98177 14.987C3.16406 14.7786 3.53516 14.2795 4.09505 13.4896C4.65495 12.6997 4.99566 12.1875 5.11719 11.9531C5.26476 11.6927 5.48611 11.2652 5.78125 10.6706C6.07639 10.076 6.23264 9.73958 6.25 9.66146C6.18056 9.65278 5.70312 9.79601 4.81771 10.0911C4.74826 10.1085 4.62891 10.1411 4.45964 10.1888C4.29036 10.2365 4.14062 10.2778 4.01042 10.3125C3.88021 10.3472 3.80642 10.3689 3.78906 10.3776C3.7717 10.395 3.76302 10.4405 3.76302 10.5143C3.76302 10.5881 3.75868 10.6293 3.75 10.638C3.7066 10.7248 3.57205 10.7899 3.34635 10.8333C3.1467 10.8941 2.94271 10.8941 2.73438 10.8333C2.57812 10.7986 2.4566 10.7075 2.36979 10.5599C2.33507 10.5078 2.31337 10.408 2.30469 10.2604C2.35677 10.2431 2.46311 10.2214 2.6237 10.1953C2.78429 10.1693 2.91233 10.1432 3.00781 10.1172C3.51128 9.9783 3.96701 9.83941 4.375 9.70052C5.24306 9.3967 5.68576 9.24479 5.70312 9.24479C5.78993 9.22743 5.97656 9.1428 6.26302 8.99089C6.54948 8.83898 6.74045 8.74566 6.83594 8.71094C6.91406 8.6849 7.00738 8.65017 7.11589 8.60677C7.22439 8.56337 7.28733 8.5395 7.30469 8.53516C7.32205 8.53082 7.34809 8.53299 7.38281 8.54167C7.40017 8.64583 7.39583 8.78906 7.36979 8.97135C7.36979 8.98872 7.31554 9.1059 7.20703 9.32292C7.09852 9.53993 6.98351 9.77214 6.86198 10.0195C6.74045 10.2669 6.66667 10.4123 6.64062 10.4557C6.42361 10.8898 6.08941 11.4583 5.63802 12.1615L6.47135 12.526C6.57552 12.5781 6.89887 12.717 7.44141 12.9427C7.98394 13.1684 8.27691 13.2899 8.32031 13.3073C8.35503 13.316 8.40061 13.4267 8.45703 13.6393C8.51345 13.852 8.53299 13.9844 8.51562 14.0365ZM5.84635 7.70833C5.8724 7.83854 5.85503 7.96007 5.79427 8.07292C5.6901 8.27257 5.47309 8.4375 5.14323 8.56771C4.88281 8.67188 4.6224 8.72396 4.36198 8.72396C4.13628 8.69792 3.92361 8.58507 3.72396 8.38542C3.60243 8.25521 3.52431 8.07726 3.48958 7.85156L3.5026 7.8125C3.52865 7.83854 3.61328 7.86024 3.75651 7.8776C3.89974 7.89497 4.01476 7.89497 4.10156 7.8776C4.18837 7.86024 4.4401 7.7908 4.85677 7.66927C5.16927 7.5651 5.40799 7.50434 5.57292 7.48698C5.72049 7.48698 5.81163 7.56076 5.84635 7.70833ZM14.9349 9.38802L15.7552 12.3438L13.9453 11.7969L14.9349 9.38802ZM0.507812 19.8047L9.54427 16.7839V3.34635L0.507812 6.38021V19.8047ZM16.6667 15.6771L17.9948 16.0807L15.638 7.52604L14.3359 7.1224L11.5234 14.1016L12.8516 14.5052L13.4375 13.0729L16.1849 13.9193L16.6667 15.6771ZM10.1172 3.15104L17.5781 5.54688V0.598958L10.1172 3.15104ZM14.1667 20.3776L16.224 20.5469L15.5208 22.6302L15 21.7708C13.8715 22.4913 12.6736 22.9601 11.4062 23.1771C10.9028 23.2813 10.5078 23.3333 10.2214 23.3333H9.1276C8.44184 23.3333 7.57595 23.1641 6.52995 22.8255C5.48394 22.487 4.6875 22.1181 4.14062 21.7188C4.07118 21.658 4.03646 21.5885 4.03646 21.5104C4.03646 21.441 4.05816 21.3824 4.10156 21.3346C4.14497 21.2869 4.20139 21.263 4.27083 21.263C4.30556 21.263 4.38368 21.2956 4.50521 21.3607C4.62674 21.4258 4.75911 21.4974 4.90234 21.5755C5.04557 21.6536 5.13455 21.7014 5.16927 21.7188C5.80295 22.0399 6.49523 22.3069 7.24609 22.5195C7.99696 22.7322 8.68056 22.8385 9.29688 22.8385C10.1215 22.8385 10.8464 22.7756 11.4714 22.6497C12.0964 22.5239 12.7778 22.3047 13.5156 21.9922C13.6458 21.9314 13.7782 21.8642 13.9128 21.7904C14.0473 21.7166 14.1949 21.6341 14.3555 21.543C14.5161 21.4518 14.6398 21.3802 14.7266 21.3281L14.1667 20.3776ZM20 6.32813V20.3776L9.92188 17.1745C9.80035 17.2266 8.17274 17.7799 5.03906 18.8346C1.90538 19.8893 0.30816 20.4167 0.247396 20.4167C0.134549 20.4167 0.0564236 20.3602 0.0130208 20.2474C0.0130208 20.2387 0.00868056 20.2257 0 20.2083V6.17188C0.0260417 6.09375 0.0434028 6.05035 0.0520833 6.04167C0.0954861 5.98958 0.182292 5.94184 0.3125 5.89844C1.24132 5.58594 1.88802 5.36892 2.2526 5.2474V0.247396L9.51823 2.82552C9.53559 2.82552 10.2322 2.58681 11.6081 2.10938C12.9839 1.63194 14.3555 1.16102 15.7227 0.696615C17.0898 0.232205 17.7908 0 17.8255 0C17.9991 0 18.0859 0.0911458 18.0859 0.273438V5.71615L20 6.32813Z" fill="#616161"/>
</svg>
