<?xml version="1.0" encoding="utf-8"?>
<!-- Generator: Adobe Illustrator 25.2.0, SVG Export Plug-In . SVG Version: 6.00 Build 0)  -->
<svg version="1.1" id="Layer_1" xmlns="http://www.w3.org/2000/svg" xmlns:xlink="http://www.w3.org/1999/xlink" x="0px" y="0px"
	 viewBox="0 0 1920 1080" style="enable-background:new 0 0 1920 1080;" xml:space="preserve">
<style type="text/css">
	.st0{fill:#E9EAEB;}
	.st1{fill:none;stroke:#263238;stroke-linecap:round;stroke-linejoin:round;stroke-miterlimit:10;}
	.st2{fill:#FF7C38;}
	.st3{fill:#263238;stroke:#263238;stroke-linecap:round;stroke-linejoin:round;stroke-miterlimit:10;}
	.st4{fill:#FFFFFF;stroke:#263238;stroke-linecap:round;stroke-linejoin:round;stroke-miterlimit:10;}
	.st5{fill:#263238;}
	.st6{fill:none;stroke:#263238;stroke-width:2;stroke-linecap:round;stroke-linejoin:round;stroke-miterlimit:10;}
	.st7{fill:#FFFFFF;stroke:#263238;stroke-width:2;stroke-linecap:round;stroke-linejoin:round;stroke-miterlimit:10;}
	.st8{fill:none;stroke:#FFFFFF;stroke-linecap:round;stroke-linejoin:round;stroke-miterlimit:10;}
	.st9{fill:none;stroke:#263238;stroke-width:3;stroke-linecap:round;stroke-linejoin:round;stroke-miterlimit:10;}
	.st10{fill:none;stroke:#F0AE00;stroke-linecap:round;stroke-linejoin:round;stroke-miterlimit:10;}
	.st11{fill:#1A6CB6;}
	.st12{fill:#FFFFFF;}
	.st13{fill:#A2A7A9;}
</style>
<path class="st0" d="M1858.04,427.85c0,0-35.05-185.3-231.9-288.86c-196.84-103.55-436.83-76.3-536.6,38.15
	C989.77,291.6,997.85,493.25,892.69,487.8s-145.61-149.88-291.22-57.23c-145.61,92.65-70.11,218.01-80.89,297.03
	c-10.79,79.03-134.82-43.6-234.6-10.9c-99.77,32.7-145.61,125.35-134.82,179.85s-37.75,122.63-37.75,122.63h1760.81
	C1874.22,1019.19,1901.18,664.93,1858.04,427.85z"/>
<line class="st1" x1="21.65" y1="1020.24" x2="1902.12" y2="1020.24"/>
<g>
	<path class="st2" d="M340.78,725c7.9,3.45,27.21,3.01,27.22,3.01c0.2-0.01-4.15-12.64-4.52-13.41
		c-4.24-8.86-17.64-23.5-28.54-22.03c-7.85,1.06-12.22,8.92-10.45,16.32C326.31,716.46,334.06,722.07,340.78,725z"/>
	<path class="st2" d="M347.45,780.94c8.19,1.19,25.42-3.8,26.79-4.21c2.72,9.65,6.3,19.33,10.45,28.92
		c2.37,5.49,4.93,10.94,7.56,16.38c-1.57-2.3-2.99-4.35-3.22-4.62c-6.43-7.43-23.22-18.01-33.34-13.71
		c-7.3,3.1-9.43,11.83-5.77,18.5c3.74,6.81,12.7,10.17,19.96,11.23c7.37,1.07,22.15-2.89,26.05-3.99c1.03,2.08,2.04,4.16,3.08,6.23
		c4.99,9.94,10.01,19.83,14.64,29.69c1.63,3.47,3.11,6.95,4.61,10.43c-1.4-2.05-2.59-3.75-2.8-4c-6.43-7.43-23.22-18.01-33.34-13.71
		c-7.3,3.1-9.43,11.83-5.77,18.5c3.74,6.81,12.7,10.17,19.96,11.23c7.03,1.03,20.7-2.51,25.34-3.8c1.42,3.61,2.85,7.22,4.07,10.77
		c0.78,2.45,1.69,4.75,2.33,7.25c0.69,2.47,1.37,4.9,2.04,7.32c1.13,4.7,2.32,9.54,3.31,14.16c0.71,3.2,1.33,6.27,1.96,9.36
		c-1.58-3.48-4.83-10.22-5.17-10.75c-5.23-8.32-20.22-21.31-30.88-18.6c-7.68,1.96-11.12,10.27-8.5,17.41
		c2.67,7.29,11.01,11.98,18.02,14.12c7.73,2.36,24.83,0.2,26.97-0.08c1.02,5.11,1.97,10.09,2.79,14.81
		c1.83,10.4,3.22,19.73,4.27,27.62h7.21c-1.26-8.17-2.9-17.9-5.08-28.82c-1.02-5.19-2.21-10.72-3.49-16.39
		c1.29-0.51,8.58-3.46,15.05-7.07c5.63,6.1,20.06,13.23,21.93,14.14c-1.96,4.83-3.92,9.51-5.84,13.89
		c-3.99,9.18-7.78,17.33-11.13,24.25h7.8c2.88-6.39,6.04-13.66,9.33-21.72c2.01-4.89,4.07-10.17,6.13-15.6
		c2.07,0.43,19,3.87,26.89,2.09c7.16-1.62,15.83-5.67,19.03-12.74c3.14-6.93,0.33-15.47-7.19-17.99
		c-10.43-3.5-26.35,8.34-32.18,16.25c-0.35,0.47-3.51,5.94-5.45,9.43c0.83-2.22,1.66-4.37,2.48-6.67c1.67-4.54,3.19-9.11,4.85-14.03
		c0.72-2.4,1.45-4.83,2.18-7.28c0.78-2.42,1.29-5.07,1.96-7.62c1.42-5.96,2.57-12.06,3.58-18.23c3.98,1.45,18.17,6.39,25.52,5.87
		c7.32-0.51,16.5-3.2,20.74-9.71c4.15-6.37,2.67-15.24-4.37-18.88c-9.78-5.04-27.31,4.26-34.27,11.19
		c-0.43,0.43-4.87,5.97-7.25,9.05c0.58-3.72,1.18-7.42,1.65-11.2c1.35-10.91,2.38-21.99,3.46-33.05c0.33-3.39,0.7-6.76,1.05-10.13
		c1.41,0.53,18.15,6.76,26.39,6.19c7.32-0.51,16.5-3.2,20.74-9.71c4.15-6.37,2.67-15.24-4.38-18.87
		c-9.78-5.04-27.31,4.25-34.27,11.18c-0.52,0.52-6.9,8.5-8.42,10.6c0.79-7.43,1.64-14.83,2.77-22.09
		c1.55-10.02,3.63-19.76,6.34-29.05c0.65,0.25,18.1,6.83,26.54,6.24c7.32-0.52,16.5-3.2,20.74-9.71c4.15-6.37,2.67-15.24-4.38-18.88
		c-9.78-5.04-27.31,4.25-34.27,11.18c-0.54,0.54-7.4,9.13-8.53,10.77c0.16-0.55,0.27-1.14,0.44-1.69
		c3.02-9.88,7.19-19.08,11.51-27.49c2.5-4.9,5.17-9.44,7.86-13.79c3.13,1.56,17.48,8.53,25.13,8.84c7.33,0.29,16.75-1.37,21.68-7.38
		c4.83-5.88,4.33-14.86-2.27-19.24c-9.17-6.09-27.61,1.23-35.29,7.35c-0.42,0.33-4.29,4.19-7.07,7.04c1.24-1.95,2.49-3.98,3.72-5.83
		c4.6-6.93,9.24-12.99,13.4-18.33c2.39-3.01,4.6-5.69,6.71-8.18c3.86-0.07,19.43-0.54,26.24-3.74c6.64-3.12,14.24-8.94,15.84-16.54
		c1.57-7.44-3.01-15.18-10.89-16.03c-10.94-1.18-23.94,13.81-27.93,22.79c-0.34,0.78-4.35,13.53-4.15,13.52c0,0,0.19,0,0.23,0
		c-2.07,2.35-4.26,4.89-6.6,7.72c-4.28,5.26-9.07,11.23-13.84,18.09c-4.79,6.84-9.79,14.41-14.35,22.85
		c-4.58,8.46-8.96,17.59-12.26,27.59c-0.04,0.11-0.06,0.24-0.1,0.35c0.06-3.22-0.08-12.24-0.18-12.93
		c-1.26-9.74-9.43-27.83-20.25-29.83c-7.79-1.44-14.39,4.67-15.02,12.25c-0.63,7.74,4.98,15.49,10.45,20.38
		c6.17,5.51,23.3,10.85,24.67,11.27c-3.05,9.55-5.41,19.59-7.24,29.89c-1.05,5.89-1.93,11.85-2.73,17.84
		c-0.04-2.79-0.1-5.28-0.14-5.63c-1.26-9.74-9.43-27.83-20.25-29.83c-7.8-1.44-14.39,4.67-15.02,12.25
		c-0.64,7.74,4.98,15.49,10.45,20.38c5.55,4.96,20.07,9.81,23.93,11.04c-0.28,2.3-0.59,4.6-0.87,6.9
		c-1.32,11.04-2.59,22.06-4.16,32.84c-0.55,3.8-1.24,7.52-1.91,11.24c-0.04-2.47-0.09-4.56-0.13-4.88
		c-1.26-9.74-9.43-27.83-20.25-29.83c-7.8-1.44-14.4,4.67-15.02,12.25c-0.63,7.74,4.98,15.49,10.45,20.38
		c5.3,4.73,18.66,9.33,23.23,10.81c-0.8,3.79-1.6,7.59-2.55,11.23c-0.71,2.47-1.21,4.9-2.06,7.34c-0.79,2.43-1.56,4.85-2.33,7.23
		c-1.65,4.54-3.33,9.24-5.05,13.63c-1.18,3.06-2.35,5.96-3.53,8.88c0.59-3.77,1.6-11.18,1.62-11.81c0.15-6.52-2.17-17.14-6.78-24.59
		c0.03-0.96-0.03-1.92-0.18-2.88c-1.21-7.51-8.26-13.09-15.92-11.05c-10.63,2.83-17.37,21.49-17.88,31.3
		c-0.03,0.58,0.35,6.89,0.65,10.88c-0.54-2.31-1.03-4.56-1.61-6.94c-1.12-4.7-2.37-9.36-3.69-14.38c-0.73-2.4-1.46-4.82-2.2-7.27
		c-0.68-2.44-1.72-4.94-2.57-7.44c-2.1-5.75-4.51-11.47-7.07-17.18c4.12-0.99,18.68-4.7,24.53-9.19c5.82-4.47,12-11.78,11.94-19.54
		c-0.06-7.61-6.18-14.19-14.06-13.33c-10.94,1.19-20.43,18.61-22.42,28.23c-0.12,0.6-0.77,7.66-1.05,11.55
		c-1.56-3.42-3.11-6.84-4.8-10.26c-4.89-9.85-10.14-19.66-15.34-29.47c-1.59-3.01-3.15-6.02-4.71-9.03
		c1.47-0.34,18.87-4.38,25.42-9.4c5.82-4.47,12-11.77,11.94-19.54c-0.05-7.6-6.18-14.19-14.06-13.33
		c-10.94,1.19-20.43,18.61-22.42,28.23c-0.15,0.72-1.07,10.89-1.17,13.49c-3.44-6.63-6.82-13.27-9.88-19.95
		c-4.23-9.21-7.87-18.49-10.74-27.73c0.69-0.16,18.87-4.29,25.58-9.44c5.82-4.47,12-11.78,11.94-19.54
		c-0.05-7.6-6.18-14.19-14.06-13.33c-10.94,1.19-20.43,18.61-22.41,28.23c-0.16,0.76-1.14,11.69-1.17,13.69
		c-0.17-0.55-0.41-1.1-0.57-1.65c-2.93-9.91-4.53-19.88-5.57-29.28c-0.61-5.46-0.89-10.72-1.05-15.84
		c3.47-0.42,19.28-2.53,25.83-6.49c6.28-3.8,13.22-10.39,14.02-18.11c0.78-7.56-4.59-14.78-12.51-14.79
		c-11-0.02-22.35,16.26-25.38,25.6c-0.17,0.51-1.27,5.86-2.02,9.77c-0.04-2.31-0.12-4.7-0.11-6.91c0.02-8.32,0.54-15.94,1.06-22.68
		c0.33-3.83,0.7-7.29,1.08-10.52c3.18-2.19,15.91-11.17,19.82-17.59c3.82-6.27,6.94-15.31,4.09-22.53
		c-2.79-7.07-10.88-11-17.92-7.36c-9.77,5.05-12.35,24.73-10.73,34.42c0.14,0.84,3.83,13.68,4,13.57c0,0,0.16-0.11,0.19-0.13
		c-0.43,3.1-0.85,6.43-1.24,10.08c-0.67,6.75-1.36,14.37-1.56,22.72c-0.22,8.34-0.22,17.42,0.64,26.98c0.85,9.58,2.23,19.62,5,29.77
		c0.03,0.11,0.08,0.23,0.11,0.34c-1.73-2.72-6.83-10.16-7.28-10.69c-6.43-7.43-23.21-18.01-33.34-13.71
		c-7.3,3.1-9.43,11.83-5.77,18.5C331.23,776.52,340.19,779.88,347.45,780.94z"/>
	<path class="st2" d="M536.11,729.25c0.17,0.11,3.51-12.83,3.63-13.68c1.35-9.73-1.75-29.33-11.66-34.11
		c-7.14-3.45-15.11,0.7-17.71,7.85c-2.66,7.3,0.71,16.25,4.7,22.41C519.75,718.95,536.1,729.24,536.11,729.25z"/>
</g>
<g>
	<path class="st2" d="M1729.19,868.23c4.72,2.06,16.27,1.8,16.28,1.8c0.12,0-2.48-7.56-2.7-8.02c-2.53-5.3-10.55-14.05-17.07-13.17
		c-4.7,0.63-7.31,5.34-6.25,9.76C1720.54,863.11,1725.17,866.47,1729.19,868.23z"/>
	<path class="st2" d="M1733.18,901.68c4.9,0.71,15.21-2.27,16.03-2.52c1.63,5.77,3.77,11.56,6.25,17.3c1.42,3.28,2.95,6.54,4.52,9.8
		c-0.94-1.38-1.79-2.6-1.93-2.76c-3.85-4.44-13.89-10.77-19.94-8.2c-4.37,1.85-5.64,7.08-3.45,11.06c2.24,4.07,7.59,6.08,11.94,6.72
		c4.41,0.64,13.25-1.73,15.58-2.39c0.62,1.24,1.22,2.49,1.84,3.73c2.98,5.94,5.99,11.86,8.76,17.76c0.98,2.08,1.86,4.16,2.76,6.24
		c-0.84-1.22-1.55-2.25-1.68-2.39c-3.84-4.44-13.88-10.77-19.94-8.2c-4.36,1.85-5.64,7.08-3.45,11.06
		c2.24,4.07,7.59,6.08,11.94,6.72c4.2,0.61,12.38-1.5,15.16-2.27c0.85,2.16,1.71,4.32,2.43,6.44c0.46,1.46,1.01,2.84,1.4,4.34
		c0.41,1.47,0.82,2.93,1.22,4.38c0.67,2.81,1.39,5.71,1.98,8.47c0.42,1.92,0.79,3.75,1.17,5.6c-0.95-2.08-2.89-6.11-3.09-6.43
		c-3.13-4.97-12.09-12.75-18.47-11.12c-4.59,1.17-6.65,6.14-5.09,10.41c1.59,4.36,6.58,7.16,10.78,8.45
		c4.62,1.41,14.85,0.12,16.13-0.05c0.61,3.06,1.18,6.04,1.67,8.86c1.1,6.22,1.92,11.8,2.55,16.52h4.31
		c-0.75-4.88-1.73-10.7-3.04-17.24c-0.61-3.11-1.32-6.41-2.09-9.8c0.77-0.31,5.13-2.07,9-4.23c3.37,3.65,12,7.92,13.11,8.46
		c-1.17,2.89-2.34,5.69-3.49,8.31c-2.39,5.49-4.65,10.36-6.65,14.51h4.66c1.72-3.82,3.61-8.17,5.58-12.99
		c1.21-2.93,2.44-6.08,3.67-9.33c1.24,0.26,11.37,2.32,16.09,1.25c4.28-0.97,9.46-3.39,11.38-7.62c1.88-4.14,0.2-9.25-4.3-10.76
		c-6.24-2.1-15.76,4.99-19.25,9.72c-0.21,0.28-2.1,3.55-3.26,5.64c0.5-1.33,0.99-2.62,1.49-3.99c1-2.71,1.91-5.45,2.9-8.39
		c0.43-1.44,0.86-2.89,1.3-4.35c0.47-1.45,0.77-3.03,1.17-4.56c0.85-3.56,1.53-7.21,2.14-10.9c2.38,0.86,10.87,3.82,15.27,3.51
		c4.38-0.31,9.87-1.92,12.4-5.81c2.48-3.81,1.6-9.12-2.62-11.29c-5.85-3.02-16.33,2.54-20.5,6.69c-0.26,0.26-2.91,3.57-4.34,5.41
		c0.35-2.22,0.71-4.44,0.99-6.7c0.81-6.52,1.43-13.15,2.07-19.76c0.2-2.03,0.42-4.04,0.63-6.06c0.84,0.32,10.86,4.05,15.78,3.7
		c4.38-0.31,9.87-1.92,12.4-5.81c2.48-3.81,1.6-9.12-2.62-11.29c-5.85-3.02-16.33,2.54-20.5,6.69c-0.31,0.31-4.13,5.08-5.04,6.34
		c0.47-4.45,0.98-8.87,1.66-13.21c0.93-5.99,2.17-11.82,3.79-17.38c0.39,0.15,10.83,4.09,15.87,3.73c4.38-0.31,9.87-1.92,12.4-5.81
		c2.48-3.81,1.6-9.12-2.62-11.29c-5.85-3.02-16.33,2.54-20.5,6.69c-0.33,0.33-4.43,5.46-5.1,6.44c0.1-0.33,0.16-0.68,0.26-1.01
		c1.81-5.91,4.3-11.41,6.88-16.44c1.5-2.93,3.09-5.64,4.7-8.25c1.87,0.93,10.45,5.1,15.03,5.28c4.39,0.17,10.02-0.82,12.97-4.41
		c2.89-3.52,2.59-8.89-1.36-11.51c-5.48-3.64-16.51,0.74-21.11,4.4c-0.25,0.2-2.57,2.51-4.23,4.21c0.74-1.17,1.49-2.38,2.23-3.48
		c2.75-4.15,5.53-7.77,8.01-10.96c1.43-1.8,2.75-3.41,4.01-4.89c2.31-0.04,11.62-0.32,15.69-2.23c3.97-1.87,8.51-5.35,9.48-9.89
		c0.94-4.45-1.8-9.08-6.51-9.59c-6.54-0.71-14.32,8.26-16.71,13.63c-0.21,0.46-2.6,8.09-2.48,8.09c0,0,0.11,0,0.14,0
		c-1.24,1.41-2.55,2.93-3.95,4.62c-2.56,3.14-5.42,6.72-8.27,10.82c-2.86,4.09-5.86,8.62-8.58,13.67
		c-2.74,5.06-5.36,10.52-7.33,16.5c-0.02,0.07-0.04,0.14-0.06,0.21c0.03-1.93-0.05-7.32-0.1-7.73c-0.76-5.83-5.64-16.64-12.11-17.84
		c-4.66-0.86-8.61,2.79-8.98,7.32c-0.38,4.63,2.98,9.26,6.25,12.19c3.69,3.3,13.94,6.49,14.75,6.74
		c-1.83,5.71-3.24,11.72-4.33,17.87c-0.63,3.52-1.15,7.09-1.63,10.67c-0.02-1.67-0.06-3.16-0.09-3.37
		c-0.76-5.83-5.64-16.64-12.11-17.84c-4.66-0.86-8.61,2.79-8.98,7.32c-0.38,4.63,2.98,9.26,6.25,12.19c3.32,2.97,12,5.87,14.31,6.6
		c-0.17,1.38-0.35,2.75-0.52,4.12c-0.79,6.6-1.55,13.2-2.49,19.64c-0.33,2.27-0.74,4.5-1.14,6.72c-0.02-1.48-0.06-2.73-0.08-2.92
		c-0.76-5.83-5.64-16.64-12.11-17.84c-4.66-0.86-8.61,2.79-8.98,7.33c-0.38,4.63,2.98,9.26,6.25,12.19
		c3.17,2.83,11.16,5.58,13.9,6.47c-0.48,2.27-0.96,4.54-1.52,6.72c-0.42,1.48-0.72,2.93-1.23,4.39c-0.47,1.46-0.93,2.9-1.4,4.33
		c-0.99,2.72-1.99,5.53-3.02,8.15c-0.7,1.83-1.41,3.56-2.11,5.31c0.36-2.26,0.96-6.69,0.97-7.07c0.09-3.9-1.3-10.25-4.05-14.71
		c0.02-0.58-0.02-1.15-0.11-1.72c-0.72-4.49-4.94-7.83-9.52-6.61c-6.36,1.69-10.39,12.85-10.69,18.72c-0.02,0.35,0.21,4.12,0.39,6.5
		c-0.32-1.38-0.61-2.73-0.96-4.15c-0.67-2.81-1.42-5.6-2.21-8.6c-0.43-1.44-0.87-2.88-1.32-4.35c-0.41-1.46-1.03-2.95-1.54-4.45
		c-1.26-3.44-2.7-6.86-4.23-10.28c2.46-0.59,11.17-2.81,14.67-5.49c3.48-2.67,7.17-7.04,7.14-11.69c-0.03-4.55-3.7-8.49-8.41-7.97
		c-6.54,0.71-12.22,11.13-13.41,16.89c-0.07,0.36-0.46,4.58-0.63,6.91c-0.93-2.05-1.86-4.09-2.87-6.13
		c-2.92-5.89-6.07-11.76-9.18-17.63c-0.95-1.8-1.88-3.6-2.82-5.4c0.88-0.2,11.29-2.62,15.21-5.62c3.48-2.67,7.17-7.04,7.14-11.69
		c-0.03-4.55-3.7-8.48-8.41-7.97c-6.54,0.71-12.22,11.13-13.41,16.89c-0.09,0.43-0.64,6.51-0.7,8.07
		c-2.06-3.96-4.08-7.94-5.91-11.93c-2.53-5.51-4.71-11.06-6.42-16.59c0.41-0.09,11.28-2.57,15.3-5.64
		c3.48-2.67,7.18-7.04,7.14-11.69c-0.03-4.55-3.7-8.48-8.41-7.97c-6.54,0.71-12.22,11.13-13.41,16.89c-0.09,0.45-0.68,6.99-0.7,8.19
		c-0.1-0.33-0.24-0.66-0.34-0.99c-1.75-5.93-2.71-11.89-3.33-17.51c-0.37-3.27-0.53-6.41-0.63-9.47c2.07-0.25,11.53-1.51,15.45-3.88
		c3.75-2.27,7.91-6.21,8.38-10.83c0.47-4.52-2.74-8.84-7.48-8.85c-6.58-0.01-13.37,9.72-15.18,15.31c-0.1,0.3-0.76,3.5-1.21,5.84
		c-0.02-1.38-0.07-2.81-0.06-4.13c0.01-4.98,0.32-9.53,0.63-13.56c0.2-2.29,0.42-4.36,0.65-6.29c1.9-1.31,9.51-6.68,11.85-10.52
		c2.28-3.75,4.15-9.15,2.45-13.48c-1.67-4.23-6.51-6.58-10.72-4.4c-5.85,3.02-7.38,14.79-6.42,20.59c0.08,0.5,2.29,8.18,2.39,8.12
		c0,0,0.09-0.06,0.11-0.08c-0.26,1.86-0.51,3.85-0.74,6.03c-0.4,4.03-0.82,8.6-0.93,13.59c-0.13,4.99-0.13,10.42,0.38,16.13
		c0.51,5.73,1.34,11.73,2.99,17.81c0.02,0.07,0.05,0.14,0.07,0.21c-1.04-1.63-4.08-6.08-4.36-6.39c-3.84-4.44-13.88-10.77-19.94-8.2
		c-4.36,1.85-5.64,7.08-3.45,11.06C1723.48,899.04,1728.84,901.05,1733.18,901.68z"/>
	<path class="st2" d="M1846.01,870.77c0.1,0.06,2.1-7.68,2.17-8.18c0.81-5.82-1.05-17.54-6.97-20.4c-4.27-2.06-9.04,0.42-10.59,4.69
		c-1.59,4.36,0.43,9.72,2.81,13.4C1836.23,864.61,1846.01,870.76,1846.01,870.77z"/>
</g>
<g>
	<g>
		<g>
			<path class="st3" d="M1174.92,880.53c0,0,45.18-6.86,93.56-7.65c48.39-0.79,64.25,2.38,76.15,6.35s22.53,37.33,6.9,69.04
				c-15.63,31.7-70.36,57.88-144.92,51.53c-74.56-6.35-127.71-21.42-156.26-42.83c-28.56-21.42-3.17-33.31,28.56-50.76
				C1110.64,888.75,1153.54,879.46,1174.92,880.53z"/>
			<path class="st4" d="M1113.02,953.79c0,0,111.05-61.08,149.92-72.18c38.87-11.1,83.29-13.48,103.91,0
				c20.62,13.48,15.86,57.11,6.35,73.77c-9.52,16.66-86.46,51.56-129.29,64.25c-42.83,12.69-210.2,11.9-256.2,15.86
				c-46.01,3.97-157.05,1.59-172.92-7.14c-15.86-8.73-6.35-18.24,16.66-23.8c23-5.55,99.15-5.55,134.84-15.86
				C1001.97,978.38,1086.84,967.27,1113.02,953.79z"/>
			<path class="st3" d="M1373.19,955.38c4.64-8.12,8.14-22.64,8.13-36.96c-28.75,22.78-73.53,49.76-135.44,71.87
				c-58.71,20.97-224.95,39.74-293.71,46.84c13.67-0.28,26-0.82,35.53-1.64c46.01-3.97,213.37-3.17,256.2-15.86
				C1286.73,1006.93,1363.67,972.03,1373.19,955.38z"/>
			<path class="st3" d="M1294.7,1000.87c11.78-5,23.55-10.4,34.29-15.8c2.37-11.67,5.17-45.94-19.94-112.02
				c-15.07,1.26-31.01,4.24-46.12,8.55C1262.93,881.61,1309.97,935.41,1294.7,1000.87z"/>
			<path class="st4" d="M1004.45,980.01c-14.93,2.98-28.4,5.86-38.18,8.68C930.58,999,854.43,999,831.43,1004.55
				c-23,5.55-32.52,15.07-16.66,23.8c15.86,8.73,126.91,11.1,172.92,7.14c5.43-0.47,12.56-0.87,20.96-1.23
				C990.31,1014.3,998.67,991.01,1004.45,980.01z"/>
		</g>
		<g>
			<path class="st4" d="M932.17,853.85c0,0-72.18,8.73-108.67,11.9c-36.49,3.17-102.32,32.52-115.81,61.08
				c-13.48,28.56,26.97,62.66,49.97,69.8c23,7.14,92.01,23,130.09,20.62c38.07-2.38,150.71-35.69,170.54-42.04
				c19.83-6.35,54.73-21.42,54.73-21.42s-33.31,0-89.63-28.56C967.07,896.68,958.34,867.33,932.17,853.85z"/>
			<path class="st3" d="M777.2,876.51c0,0,56.92-5.93,83,13.04c26.09,18.97,42.69,77.07,42.69,77.07l120.49-41.39
				c0,0-9.03-9.6-31.56-36.87c-22.53-27.27-88.93-42.69-128.06-34.39C824.63,862.28,777.2,876.51,777.2,876.51z"/>
			<path class="st4" d="M1052.58,976.98c2.32-0.71,4.28-1.32,5.7-1.78c19.83-6.35,54.73-21.42,54.73-21.42s-25.59,0-69.81-19.22
				C1049.51,945.19,1055.79,960.66,1052.58,976.98z"/>
			<path class="st3" d="M1095.51,961.13c-30.48,3.82-83.32,12.15-143.43,29.16c-68.58,19.41-151.26,12.49-191.33,7.26
				c25.56,7.49,90.49,21.98,127,19.7c38.07-2.38,150.71-35.69,170.54-42.04C1068.93,971.8,1083.91,965.88,1095.51,961.13z"/>
		</g>
	</g>
	<g>
		<path class="st4" d="M1170.63,623.33l-16.29,160.32c0,0,7.72,38.58,12.86,54.01c5.14,15.43,10.29,40.3,7.72,42.87
			c-2.57,2.57-4.29,0.86-22.29,6c-18,5.14-39.44,36.01-66.87,48.01c-27.44,12-49.73,6-75.45-4.29
			c-25.72-10.29-73.73-72.87-84.02-74.59c-10.29-1.71-41.15-6.86-54.01-11.15c-12.86-4.29-28.29-22.29-28.29-22.29
			s-2.57,0-2.57-9.43s0.86-10.29,0.86-10.29s-6.86-6-8.57-13.72c-1.71-7.72,16.29-48.87,16.29-74.59
			c0-25.72,12.86-122.6,12.86-134.6c0-12,18-14.57,36.87-22.29c18.86-7.72,118.31-44.58,120.03-54.87
			c1.71-10.29,8.57-82.3,8.57-82.3s53.35,57.06,60.01,61.73c8.57,6,12.86,12,12.86,12l-6,28.29c0,0,25.72,18.86,42.87,29.15
			c17.15,10.29,40.3,19.72,41.15,26.58"/>
	</g>
	<path class="st1" d="M901.15,811.9c3.94,3.06,7.78,7.01,11.43,12.05"/>
	<path class="st1" d="M841.41,812.8c0,0,24.63-17.09,49.25-7.01"/>
	<g>
		<path class="st4" d="M1110.62,533.18c-8.79-6.14-15.44-11.02-15.44-11.02l6-28.29c0,0-4.29-6-12.86-12
			c-6.66-4.66-60.01-61.73-60.01-61.73s-6.86,72.02-8.57,82.3c-0.56,3.34-11.42,9.48-26.46,16.5c2.62,16.54,12.04,44.14,45.32,54.65
			C1071.88,584.11,1097.6,553.67,1110.62,533.18z"/>
		<path class="st5" d="M1095.44,522.34c-0.16-0.11-0.25-0.18-0.25-0.18l6-28.29c0,0-4.29-6-12.86-12
			c-3.78-2.65-22.62-22.19-38.19-38.59l-3.95,18.77C1046.18,462.05,1046.23,515.97,1095.44,522.34z"/>
	</g>
	<g>
		<path class="st3" d="M1041.54,243.26c0,0-2.46-20.47-18.83-24.56c-16.38-4.09-54.04-1.64-67.14,22.93
			c-13.1,24.56-3.28,43.4,1.64,46.67c4.91,3.28,9.01,4.91,9.01,4.91l4.09-20.47c0,0,1.64,18.01,13.1,22.11
			c11.46,4.09,35.21,0,35.21,0S1039.09,280.1,1041.54,243.26z"/>
		<path class="st3" d="M1192.92,316.4c0,0,29.15,18.86,29.15,37.72c0,18.86-36.01,25.72-36.01,25.72L1192.92,316.4z"/>
		<g>
			<path class="st4" d="M1199.57,320.22c0,0-3.28,39.3-6.55,61.41c-3.28,22.11-17.19,40.12-18.01,54.86
				c-0.82,14.74-33.57,50.76-49.95,63.05c-16.38,12.28-40.94,8.19-53.22-1.64c-12.28-9.83-32.75-33.57-42.58-58.95
				c-9.83-25.38-2.46-62.23,0-73.69c2.46-11.46,63.86-56.5,110.54-56.5S1199.57,320.22,1199.57,320.22z"/>
			<path class="st1" d="M1147.99,411.93c0,0,3.28,29.48,3.28,31.93c0,2.46-7.37,9.83-19.65,2.46"/>
			<path class="st1" d="M1098.86,446.32c0,0,13.1,16.38,34.39,15.56"/>
			<g>
				<path class="st6" d="M1143.07,385.73c0,0-27.02-16.38-61.41-11.46c0,0-9.83,0-4.09,7.37c0,0-2.46,24.56,3.28,31.93
					s18.83,13.1,31.93,13.1C1125.88,426.66,1138.98,411.11,1143.07,385.73z"/>
				<line class="st7" x1="1076.75" y1="375.08" x2="1023.53" y2="371.81"/>
				<path class="st6" d="M1143.07,385.73l13.92,4.09c0,0-5.73,30.29-2.46,38.48l0,0c2.13,5.33,6.68,9.3,12.23,10.74
					c4.63,1.2,9.96,2.36,13.15,2.36c6.55,0,20.47-13.1,23.74-36.03c0,0,4.09-1.64,2.46-4.09c-1.64-2.46-21.43-13.91-48.45-11.45"/>
				<path class="st6" d="M1142.25,393.09c0,0,10.45,0.68,13.53,4.62"/>
			</g>
			<path class="st5" d="M1113.98,402.45c-0.94,5.36-3.6,9.38-5.93,8.97c-2.33-0.41-3.46-5.09-2.51-10.45
				c0.94-5.36,3.6-9.38,5.93-8.97C1113.8,392.41,1114.93,397.09,1113.98,402.45z"/>
			
				<ellipse transform="matrix(0.2676 -0.9635 0.9635 0.2676 456.2681 1431.8386)" class="st5" cx="1169.96" cy="415.8" rx="8.85" ry="3.85"/>
			<path class="st6" d="M1096.9,383.27c0,0,20.58-6.86,30.01,4.29"/>
			<path class="st6" d="M1164.63,398.71c0,0,9.43-8.57,17.15,3.43"/>
		</g>
		<g>
			<path class="st3" d="M1057.92,366.89c0,0,44.21-23.74,81.88-31.11s66.32-4.09,72.87-26.2c6.55-22.11-37.66-58.95-83.52-72.05
				c-45.85-13.1-100.71,0.82-122.82,33.57c-22.11,32.75-14.74,72.05-8.19,86.79c6.55,14.74,11.46,26.2,23.74,27.84
				C1034.18,387.36,1057.92,366.89,1057.92,366.89z"/>
			<g>
				<path class="st8" d="M1025.92,340.92c-4.75,2.88-8.8,6.15-11.93,9.88"/>
				<path class="st8" d="M1179.92,285.14c0,0,11.94,7.16-22.68,21.49c-25.13,10.4-76.06,13.25-111.68,25.45"/>
				<path class="st8" d="M1133.95,276.75c2.85-3.14,5.09-6.68,6.58-10.71"/>
				<path class="st8" d="M1005.63,336.47c0,0-10.74-15.52,26.26-26.26c26.69-7.75,65.18-10.53,89.05-23.57"/>
			</g>
		</g>
		<path class="st4" d="M1034.99,398.01c0,0-6.5-31.93-20.43-31.93s-15.79,14.74-10.22,32.75c5.57,18.01,14.86,23.74,23.22,18.01"/>
	</g>
	<path class="st1" d="M926.29,855.67c0,0,3.43-4.29,3.43-18c0-13.72-9.43-59.16-13.72-90.88c-4.29-31.72-8.57-92.59-8.57-118.31"/>
	<path class="st1" d="M1012.68,756.57c2.28,3.69,4.64,7.03,7.06,9.93"/>
	<path class="st1" d="M964.87,598.47c0,0,15.37,94.77,41.68,147.07"/>
	<path class="st1" d="M1018.69,679.11c3.47,6.56,6.98,12.64,10.48,17.95"/>
	<path class="st1" d="M975.16,571.89c0,0,17.2,53.22,37.56,95.38"/>
	<g>
		<path class="st4" d="M790.83,818.8c0,0,9.43,7.72,28.29,7.72c18.86,0,35.15-9.43,59.16-3.43c24.01,6,24.01,30.01,21.43,36.87
			c-2.57,6.86-25.72,11.15-47.15,8.57c-21.43-2.57-65.16-6.86-65.16-6.86S794.26,836.81,790.83,818.8z"/>
		<g>
			<path class="st4" d="M773.34,797.02c0,0,1.98,8.93,12.89,14.88c10.91,5.95,14.88,21.82,14.88,30.75c0,8.93-1.98,13.89-1.98,13.89
				s-2.98,11.9-12.89,13.89c-9.92,1.98-15.87,7.94-27.77-3.97c-11.9-11.9-28.77-49.6-28.77-49.6l1.98-5.95c0,0,9.92,0,17.85-3.97
				C757.47,802.97,773.34,797.02,773.34,797.02z"/>
			<line class="st9" x1="717.8" y1="756.35" x2="786.24" y2="870.42"/>
			<path class="st4" d="M738.63,869.43c0,0,7.94,7.94,21.82,7.94s27.77-8.93,20.83-11.9c-6.94-2.98-11.9-5.95-16.86-3.97
				C759.46,863.48,738.63,869.43,738.63,869.43z"/>
			<path class="st4" d="M728.71,854.55c0,0,5.95,16.86,10.91,18.85c4.96,1.98,25.79-2.98,31.74-6.94
				c5.95-3.97-3.97-10.91-12.9-10.91C749.54,855.54,728.71,854.55,728.71,854.55z"/>
			<path class="st4" d="M724.74,828.76c0,0-3.97,20.83,3.97,25.79c7.94,4.96,38.69,6.94,41.66,0.99c2.98-5.95-7.94-8.93-18.85-13.89
				C740.61,836.7,724.74,828.76,724.74,828.76z"/>
			<path class="st4" d="M755.49,799.99c0,0,0.99,38.69,4.96,42.65c3.97,3.97,12.9,4.96,14.88,1.98c1.98-2.98,3.97-36.7-1.98-47.61
				C767.39,786.11,755.49,799.99,755.49,799.99z"/>
			<path class="st4" d="M731.68,810.91c0,0-12.9-2.98-12.9,9.92c0,12.89,17.85,20.83,25.79,21.82c7.94,0.99,16.86-1.98,9.92-7.94
				C747.55,828.76,737.63,815.86,731.68,810.91z"/>
		</g>
	</g>
	<g>
		<path class="st3" d="M829.05,873.68l55.52-7.93c0,0-7.14-10.31-25.38-10.31c-18.24,0-29.35,8.73-31.73,11.9
			C825.08,870.5,829.05,873.68,829.05,873.68z"/>
		<path class="st4" d="M940.89,939.51l88.84-30.94c0,0-21.42-45.21-61.87-61.08c-40.45-15.86-100.46-11.78-125.84-2.26l9.24,10.19
			c0,0,18.24,0.79,38.07,23.8c19.83,23,39.66,59.49,39.66,59.49L940.89,939.51z"/>
		<g>
			<path class="st10" d="M885.47,849.53c0,0,35.27-5.04,72.23,73.91"/>
			<path class="st10" d="M902.85,846.05c0,0,35.27-5.04,72.23,73.91"/>
			<path class="st10" d="M917.45,843.27c0,0,35.27-5.04,72.23,73.91"/>
		</g>
		<path class="st4" d="M704.52,929.2c0,0,39.66-58.7,113.43-53.94l11.1-1.59c0,0,7.14-16.66,27.76-12.69
			c20.62,3.97,73.77,85.67,73.77,85.67l10.31-7.14c0,0-28.06-47.55-49.48-74.52c-21.42-26.97-49.39-26.04-58.38-16.17
			c-5.49,6.04-13,19.7-13,19.7s-8.24-12.45-32.64-6.86c-29.98,6.86-46.51,20.21-55.03,29.41c-12.4,13.39-37.4,31.6-34.99,30.19
			L704.52,929.2z"/>
		<polygon class="st4" points="930.58,946.65 1024.97,914.13 1029.73,908.58 940.89,939.51 		"/>
	</g>
</g>
<g>
	<path class="st4" d="M1163.38,565.45c0,0,34.05,11.76,39.2,29.76c5.14,18,30.64,116.42,37.5,130.99
		c6.86,14.57,22.29,23.15,22.29,34.29c0,11.15,0.86,19.72,0.86,19.72s18,0.86,19.72,15.43c1.71,14.57,5.14,33.44,5.14,33.44
		l68.6,106.13c0,0,40.92,3.3,50.35,2.44c9.43-0.86,37.46,0.94,47.7,6.33c3.97,2.09,11.86,8.89,18.06,30.72
		c3.08,10.85,9.9,31.85,5.61,30.99c-4.29-0.86-9.56-12.79-11.27-15.36c-1.71-2.57-6.73-17.22-6.73-17.22s3.43,24.86,4.29,30.01
		c0.86,5.14-1.71,10.29-1.71,10.29l-0.36,0.15c-4.21,1.71-8.87,1.99-13.26,0.81l-3.52-0.95l0,0c-3.29,1.78-7.16,2.19-10.75,1.13
		l-3.82-1.13c0,0-5.57-17.61-10.71-24.47c-5.14-6.86-21.31-14.3-21.31-14.3s17.44,19.91,16.59,32.77c-0.35,5.2,0.86,9.43-3.43,6.86
		c-4.29-2.57-9.43-15.43-18.86-19.72c-9.43-4.29-31.72-10.29-40.3-15.43c-8.57-5.14-22.29-24.01-22.29-24.01l-112.31-101.17
		c0,0-11.15-11.15-12.86-17.15c-1.71-6-1.71-6-1.71-6s-15.43-9.43-19.72-14.57c-4.29-5.14-6-16.29-6-16.29l-23.15-26.58
		l15.43-146.61"/>
	<path class="st4" d="M1161.89,660.72l-6.69,112.65l23.15,26.58c0,0,1.71,11.15,6,16.29s19.72,14.57,19.72,14.57s0,0,1.71,6
		c1.71,6,12.86,17.15,12.86,17.15l16.81,15.14c6.83-13.32,23.06-37.34,52.42-41.2c-0.77-4.31-3.47-19.81-4.93-32.24
		c-1.71-14.58-19.72-15.43-19.72-15.43s-0.86-8.57-0.86-19.72c0-11.15-15.43-19.72-22.29-34.29s-32.36-112.99-37.5-130.99
		c-5.14-18-39.2-29.76-39.2-29.76"/>
	<polygon class="st5" points="1160.54,694.78 1171.84,791.14 1155.2,773.36 	"/>
	<g>
		<path class="st1" d="M1240.17,795.34c2.37-1.66,4.91-3.28,7.63-4.83"/>
		<path class="st1" d="M1212.64,826.52c0,0,5.35-12.16,18.99-24.39"/>
		<path class="st1" d="M1231.34,780.1c3.63-0.57,7.41-0.85,11.31-0.74"/>
		<path class="st1" d="M1189.49,800.8c0,0,11.35-10.93,28.47-17.19"/>
	</g>
	<path class="st1" d="M1403.83,980.84c0,0-9.43-12.86-22.29-13.72"/>
	<path class="st1" d="M1408.12,952.55c0,0,10.29,2.57,23.15,18.86s16.29,40.3,16.29,40.3"/>
	<path class="st1" d="M1432.67,949.12c0,0,19.18,15.43,22.61,30.01c3.43,14.57,7.72,34.29,7.72,34.29"/>
	<path class="st1" d="M1460.42,973.13c0,0-3.43-15.43-12-27.43"/>
</g>
<g>
	<polygon class="st4" points="1720.19,1007.38 1483.56,1007.38 1548.72,791.33 1785.35,791.33 	"/>
	<path class="st3" d="M1720.19,1007.38l55.21-183.06c-69.87,8.64-110.98,66.19-175.61,129.32c-40.68,39.73-68.91,51.14-85.48,53.74
		H1720.19z"/>
	<ellipse class="st4" cx="1643.89" cy="889.07" rx="18.72" ry="18"/>
	<rect x="1280.37" y="1006.52" class="st4" width="442.39" height="13.72"/>
	<rect x="1496.42" y="1006.52" class="st3" width="226.34" height="13.72"/>
</g>
<g>
	<g>
		<path class="st4" d="M704.07,969.62H526.75c-15.71,0-28.44,12.74-28.44,28.44v3.13c0,15.71,12.74,28.44,28.44,28.44h177.32
			c0,0-9.47-14.23-9.47-30.39C694.59,983.08,704.07,969.62,704.07,969.62z"/>
		<path class="st4" d="M619.89,969.62H442.57c-15.71,0-28.44,12.74-28.44,28.44v3.13c0,15.71,12.74,28.44,28.44,28.44h177.32
			c0,0-9.47-14.23-9.47-30.39C610.42,983.08,619.89,969.62,619.89,969.62z"/>
		<path class="st4" d="M414.13,998.06v3.13c0,11.42,6.74,21.24,16.45,25.77l3.9,0.16V974l-2.3-2.4
			C421.62,975.75,414.13,986.02,414.13,998.06z"/>
		<path class="st9" d="M704.07,969.62H442.57c-15.71,0-28.44,12.74-28.44,28.44v3.13c0,15.71,12.74,28.44,28.44,28.44h261.49"/>
		<g>
			<line class="st1" x1="435.37" y1="982.85" x2="522.11" y2="982.85"/>
			<line class="st1" x1="534.5" y1="990.82" x2="547.78" y2="990.82"/>
			<line class="st1" x1="452.18" y1="990.82" x2="522.99" y2="990.82"/>
			<line class="st1" x1="435.37" y1="1008.52" x2="479.62" y2="1008.52"/>
			<line class="st1" x1="568.14" y1="1018.26" x2="577.87" y2="1018.26"/>
			<line class="st1" x1="506.18" y1="1018.26" x2="560.17" y2="1018.26"/>
			<line class="st1" x1="452.18" y1="1018.26" x2="490.24" y2="1018.26"/>
		</g>
	</g>
	<g>
		<path class="st4" d="M528.5,969.62H280.11c-15.71,0-28.44,12.74-28.44,28.44v3.13c0,15.71,12.74,28.44,28.44,28.44H528.5
			c0,0-9.47-14.23-9.47-30.39C519.03,983.08,528.5,969.62,528.5,969.62z"/>
		<g>
			<line class="st1" x1="377.44" y1="979.06" x2="377.44" y2="1022"/>
			<line class="st1" x1="378.78" y1="985.77" x2="449.91" y2="985.77"/>
			<line class="st1" x1="378.78" y1="996.51" x2="476.76" y2="996.51"/>
			<line class="st1" x1="408.98" y1="1008.58" x2="434.48" y2="1008.58"/>
			<line class="st1" x1="466.69" y1="1016.64" x2="390.19" y2="1016.64"/>
		</g>
		<path class="st3" d="M365.08,1001.19v-3.13c0-15.71,12.74-28.44,28.44-28.44H280.11c-15.71,0-28.44,12.74-28.44,28.44v3.13
			c0,15.71,12.74,28.44,28.44,28.44h113.41C377.81,1029.63,365.08,1016.9,365.08,1001.19z"/>
		<path class="st9" d="M515.44,969.62H280.11c-15.71,0-28.44,12.74-28.44,28.44v3.13c0,15.71,12.74,28.44,28.44,28.44h235.32"/>
		<path class="st9" d="M533.79,969.62h-139.6c-15.71,0-28.44,12.74-28.44,28.44v3.13c0,15.71,12.74,28.44,28.44,28.44h139.6"/>
	</g>
	<g>
		<path class="st4" d="M675.87,910.54H498.55c-15.71,0-28.44,12.74-28.44,28.44v3.12c0,15.71,12.74,28.44,28.44,28.44h177.32
			c0,0-9.47-14.23-9.47-30.39S675.87,910.54,675.87,910.54z"/>
		<path class="st4" d="M591.69,910.54H414.37c-15.71,0-28.44,12.74-28.44,28.44v3.12c0,15.71,12.74,28.44,28.44,28.44h177.32
			c0,0-9.47-14.23-9.47-30.39S591.69,910.54,591.69,910.54z"/>
		<path class="st4" d="M385.93,938.98v3.13c0,11.42,6.74,21.24,16.45,25.77l3.9,0.16v-53.11l-2.3-2.4
			C393.42,916.68,385.93,926.94,385.93,938.98z"/>
		<path class="st9" d="M675.87,910.54H414.37c-15.71,0-28.44,12.74-28.44,28.44v3.12c0,15.71,12.74,28.44,28.44,28.44h261.49"/>
		<g>
			<line class="st1" x1="407.17" y1="923.77" x2="493.91" y2="923.77"/>
			<line class="st1" x1="506.31" y1="931.74" x2="519.58" y2="931.74"/>
			<line class="st1" x1="423.99" y1="931.74" x2="494.8" y2="931.74"/>
			<line class="st1" x1="407.17" y1="949.44" x2="451.43" y2="949.44"/>
			<line class="st1" x1="539.94" y1="959.18" x2="549.68" y2="959.18"/>
			<line class="st1" x1="477.98" y1="959.18" x2="531.97" y2="959.18"/>
			<line class="st1" x1="423.99" y1="959.18" x2="462.05" y2="959.18"/>
		</g>
	</g>
</g>
<g>
	<g>
		<path class="st1" d="M1376.57,751.35h-60.63c-2.56,0-4.64-2.08-4.64-4.64v-17.62c0-2.56,2.08-4.64,4.64-4.64h81.25
			c2.56,0,4.64,2.08,4.64,4.64v6.92"/>
		<path class="st1" d="M1376,780.01v-37.69c0-3.33,2.7-6.04,6.04-6.04h80.47c3.33,0,6.04,2.7,6.04,6.04v45.13"/>
		<path class="st1" d="M1468.54,824.61v47c0,3.33-2.7,6.04-6.04,6.04h-80.47c-3.33,0-6.04-2.7-6.04-6.04v-82.56"/>
		<line class="st1" x1="1381.71" y1="758.31" x2="1462.78" y2="758.31"/>
		<line class="st1" x1="1420.44" y1="782.76" x2="1462.78" y2="782.76"/>
		<line class="st1" x1="1381.71" y1="782.76" x2="1413.83" y2="782.76"/>
		<line class="st1" x1="1381.71" y1="807.21" x2="1462.78" y2="807.21"/>
		<line class="st1" x1="1448.25" y1="831.65" x2="1462.78" y2="831.65"/>
		<line class="st1" x1="1381.71" y1="831.65" x2="1440.95" y2="831.65"/>
		<line class="st1" x1="1381.71" y1="856.1" x2="1462.78" y2="856.1"/>
		<line class="st1" x1="1327.67" y1="737.29" x2="1371.85" y2="737.29"/>
	</g>
	<g>
		<g>
			<g>
				<path class="st1" d="M747.74,272.54H672.9c-3.16,0-5.73-2.56-5.73-5.73v-21.75c0-3.16,2.56-5.73,5.73-5.73h100.29
					c3.16,0,5.73,2.56,5.73,5.73v8.54"/>
				<path class="st1" d="M747.04,307.92v-46.52c0-4.11,3.34-7.45,7.45-7.45h99.33c4.12,0,7.45,3.34,7.45,7.45v55.71"/>
				<path class="st1" d="M861.27,362.97v58.02c0,4.12-3.34,7.45-7.45,7.45h-99.33c-4.12,0-7.45-3.34-7.45-7.45V319.07"/>
				<line class="st1" x1="754.09" y1="281.13" x2="854.16" y2="281.13"/>
				<line class="st1" x1="801.89" y1="311.3" x2="854.16" y2="311.3"/>
				<line class="st1" x1="754.09" y1="311.3" x2="793.74" y2="311.3"/>
				<line class="st1" x1="754.09" y1="341.48" x2="854.16" y2="341.48"/>
				<line class="st1" x1="836.23" y1="371.66" x2="854.16" y2="371.66"/>
				<line class="st1" x1="754.09" y1="371.66" x2="827.21" y2="371.66"/>
				<line class="st1" x1="754.09" y1="401.84" x2="854.16" y2="401.84"/>
				<line class="st1" x1="687.38" y1="255.18" x2="741.91" y2="255.18"/>
			</g>
			<g>
				<g>
					<path class="st5" d="M876.15,365.97c-4.17,0-8.31-1.58-11.5-4.67l-10.66-10.57c-1.29-1.28-1.51-3.24-0.55-4.78
						c0.61-0.98,1.62-1.63,2.77-1.78c1.15-0.15,2.29,0.22,3.13,1.01l2.11,1.97l-10.72-22.07c-0.53-1.13-0.58-2.39-0.14-3.55
						c0.44-1.16,1.31-2.08,2.45-2.57c2.26-0.98,4.86-0.01,5.93,2.22l4.05,7.81c0.82-0.94,1.78-1.49,2.87-1.65
						c1.74-0.26,3.33,0.59,4.22,1.22c0.85-1.03,1.86-1.64,3.01-1.8c1.41-0.19,2.71,0.35,3.58,0.86c0.57-1.3,1.68-1.97,3.14-1.89
						c1.43,0.08,2.76,0.96,3.48,2.28l7.57,13.92c3.71,7.31,1.59,16.08-5.01,20.88C882.94,364.93,879.53,365.97,876.15,365.97z
						 M856.71,345.87c-0.09,0-0.19,0.01-0.28,0.02c-0.63,0.08-1.19,0.44-1.53,0.98c-0.53,0.85-0.41,1.94,0.31,2.64l10.65,10.56
						c5.17,5.01,13.16,5.58,19,1.34c5.92-4.3,7.81-12.16,4.5-18.68l-7.55-13.9c-0.44-0.81-1.23-1.34-2.07-1.38
						c-0.7-0.04-1.46,0.13-1.7,1.7l-0.25,1.58l-1.18-1.07c-0.01-0.01-1.61-1.43-3.26-1.19c-0.88,0.12-1.67,0.72-2.33,1.78
						l-0.56,0.89l-0.76-0.72c-0.02-0.01-1.78-1.64-3.57-1.37c-0.96,0.14-1.8,0.84-2.51,2.07l-0.82,1.42l-5.39-10.61
						c-0.66-1.38-2.28-1.99-3.69-1.38c-0.71,0.31-1.25,0.88-1.53,1.6c-0.27,0.73-0.24,1.51,0.09,2.21l14.56,30.22l-8.68-8.13
						C857.76,346.07,857.24,345.87,856.71,345.87z"/>
				</g>
				<g>
					<path class="st5" d="M866.83,340.87c-0.33,0-0.65-0.2-0.79-0.52l-3.96-9.33c-0.19-0.44,0.02-0.94,0.46-1.13
						c0.44-0.19,0.94,0.02,1.13,0.46l3.96,9.33c0.19,0.44-0.02,0.94-0.46,1.13C867.05,340.84,866.94,340.87,866.83,340.87z"/>
				</g>
				<g>
					<path class="st5" d="M873.73,338.82c-0.34,0-0.65-0.2-0.79-0.53l-3.45-8.18c-0.18-0.44,0.02-0.94,0.46-1.13
						c0.44-0.18,0.94,0.02,1.13,0.46l3.45,8.18c0.18,0.44-0.02,0.94-0.46,1.13C873.95,338.8,873.84,338.82,873.73,338.82z"/>
				</g>
				<g>
					<path class="st5" d="M880.5,337.03c-0.32,0-0.64-0.18-0.78-0.5l-3.32-7.15c-0.2-0.43-0.01-0.94,0.42-1.14
						c0.43-0.2,0.94-0.01,1.14,0.42l3.32,7.16c0.2,0.43,0.01,0.94-0.42,1.14C880.74,337.01,880.62,337.03,880.5,337.03z"/>
				</g>
			</g>
		</g>
		
			<rect x="804.03" y="222.59" transform="matrix(0.7071 -0.7071 0.7071 0.7071 75.3829 640.3184)" class="st1" width="13.15" height="13.15"/>
		<path class="st1" d="M730.35,304.94c0-3.8-3.08-6.89-6.89-6.89s-6.89,3.08-6.89,6.89c0,3.8,3.08,6.89,6.89,6.89
			S730.35,308.75,730.35,304.94z"/>
	</g>
	<g>
		
			<rect x="1649.35" y="87.62" transform="matrix(0.7071 -0.7071 0.7071 0.7071 413.3055 1210.8057)" class="st1" width="37.75" height="37.75"/>
		
			<rect x="728.82" y="820.87" transform="matrix(0.7071 -0.7071 0.7071 0.7071 -374.7925 774.6576)" class="st1" width="37.75" height="37.75"/>
		
			<rect x="612.53" y="768.88" transform="matrix(0.7071 -0.7071 0.7071 0.7071 -372.0945 677.197)" class="st1" width="37.75" height="37.75"/>
		
			<rect x="1608.32" y="133.01" transform="matrix(0.7071 -0.7071 0.7071 0.7071 372.7463 1186.5042)" class="st1" width="20.59" height="20.59"/>
		<circle class="st1" cx="1623.44" cy="732.73" r="10.79"/>
		<circle class="st1" cx="728.55" cy="639.26" r="10.79"/>
		<circle class="st1" cx="1204.43" cy="128.07" r="10.79"/>
	</g>
</g>
<g>
	<rect x="1259.42" y="225.78" class="st2" width="523.12" height="471.89"/>
	<g>
		<rect x="1288.95" y="201.52" class="st4" width="527.27" height="473.92"/>
		<rect x="1427.84" y="201.52" class="st3" width="388.38" height="64.3"/>
		<rect x="1288.95" y="201.52" class="st4" width="527.27" height="33.44"/>
		<g>
			<rect x="1312.09" y="312.11" class="st3" width="321.5" height="205.76"/>
			<rect x="1312.09" y="494.96" class="st4" width="321.5" height="22.92"/>
			<rect x="1312.09" y="503.07" class="st4" width="321.5" height="6.69"/>
			<g>
				
					<ellipse transform="matrix(0.5227 -0.8525 0.8525 0.5227 347.3698 1448.4393)" class="st11" cx="1467.27" cy="413.99" rx="47.35" ry="47.35"/>
				<polygon class="st12" points="1494.7,415.01 1453.51,391.23 1453.51,438.8 				"/>
			</g>
		</g>
		<g>
			<rect x="1662.46" y="312.11" class="st3" width="126.96" height="81.25"/>
			<rect x="1662.46" y="384.31" class="st4" width="126.96" height="9.05"/>
			<rect x="1662.46" y="387.52" class="st4" width="126.96" height="2.64"/>
			<g>
				<circle class="st11" cx="1723.74" cy="352.34" r="18.7"/>
				<polygon class="st12" points="1734.57,352.75 1718.31,343.36 1718.31,362.14 				"/>
			</g>
		</g>
		<g>
			<rect x="1662.46" y="401.4" class="st3" width="126.96" height="81.25"/>
			<rect x="1662.46" y="473.6" class="st4" width="126.96" height="9.05"/>
			<rect x="1662.46" y="476.8" class="st4" width="126.96" height="2.64"/>
			<g>
				<path class="st11" d="M1742.43,441.63c0-10.33-8.37-18.7-18.7-18.7c-10.33,0-18.7,8.37-18.7,18.7c0,10.33,8.37,18.7,18.7,18.7
					C1734.06,460.32,1742.43,451.95,1742.43,441.63z"/>
				<polygon class="st12" points="1734.57,442.03 1718.31,432.64 1718.31,451.42 				"/>
			</g>
		</g>
		<g>
			<rect x="1662.46" y="490.68" class="st3" width="126.96" height="81.25"/>
			<rect x="1662.46" y="562.88" class="st4" width="126.96" height="9.05"/>
			<rect x="1662.46" y="566.09" class="st4" width="126.96" height="2.64"/>
			<g>
				<path class="st11" d="M1742.43,530.91c0-10.33-8.37-18.7-18.7-18.7c-10.33,0-18.7,8.37-18.7,18.7c0,10.33,8.37,18.7,18.7,18.7
					C1734.06,549.6,1742.43,541.23,1742.43,530.91z"/>
				<polygon class="st12" points="1734.57,531.31 1718.31,521.92 1718.31,540.7 				"/>
			</g>
		</g>
		<g>
			<rect x="1662.46" y="579.96" class="st3" width="126.96" height="81.25"/>
			<rect x="1662.46" y="652.16" class="st4" width="126.96" height="9.05"/>
			<rect x="1662.46" y="655.37" class="st4" width="126.96" height="2.64"/>
			<g>
				<path class="st11" d="M1742.43,620.19c0-10.33-8.37-18.7-18.7-18.7c-10.33,0-18.7,8.37-18.7,18.7c0,10.33,8.37,18.7,18.7,18.7
					C1734.06,638.89,1742.43,630.52,1742.43,620.19z"/>
				<polygon class="st12" points="1734.57,620.6 1718.31,611.21 1718.31,629.99 				"/>
			</g>
		</g>
		<line class="st1" x1="1314.6" y1="539.6" x2="1560.8" y2="539.6"/>
		<g>
			<line class="st1" x1="1314.6" y1="597.77" x2="1460.86" y2="597.77"/>
			<line class="st1" x1="1314.6" y1="620.76" x2="1460.86" y2="620.76"/>
			<line class="st1" x1="1314.6" y1="643.76" x2="1460.86" y2="643.76"/>
		</g>
		<g>
			<line class="st1" x1="1488.94" y1="597.77" x2="1635.2" y2="597.77"/>
			<line class="st1" x1="1488.94" y1="620.76" x2="1635.2" y2="620.76"/>
			<line class="st1" x1="1488.94" y1="643.76" x2="1635.2" y2="643.76"/>
		</g>
		<line class="st1" x1="1314.6" y1="558.54" x2="1625.73" y2="558.54"/>
		<g>
			<rect x="1797.01" y="312.25" class="st13" width="12.69" height="351.97"/>
			<rect x="1797.01" y="397.65" class="st5" width="12.69" height="45.01"/>
		</g>
	</g>
	<line class="st1" x1="1680.07" y1="676.1" x2="1680.07" y2="792.05"/>
</g>
<g>
	<path class="st3" d="M1496.42,1006.52l0.88,0.86h2.01C1497.4,1006.97,1496.42,1006.52,1496.42,1006.52z"/>
</g>
</svg>
