<?xml version="1.0" encoding="utf-8"?>
<!-- Generator: Adobe Illustrator 25.2.0, SVG Export Plug-In . SVG Version: 6.00 Build 0)  -->
<svg version="1.1" id="Layer_1" xmlns="http://www.w3.org/2000/svg" xmlns:xlink="http://www.w3.org/1999/xlink" x="0px" y="0px"
	 viewBox="0 0 1920 1080" style="enable-background:new 0 0 1920 1080;" xml:space="preserve">
<style type="text/css">
	.st0{fill:#E9EAEB;}
	.st1{fill:none;stroke:#263238;stroke-linecap:round;stroke-linejoin:round;stroke-miterlimit:10;}
	.st2{fill:#FF7C38;}
	.st3{fill:#263238;stroke:#263238;stroke-linecap:round;stroke-linejoin:round;stroke-miterlimit:10;}
	.st4{fill:#FFFFFF;stroke:#263238;stroke-linecap:round;stroke-linejoin:round;stroke-miterlimit:10;}
	.st5{fill:#263238;}
	.st6{display:none;fill:#263238;stroke:#263238;stroke-linecap:round;stroke-linejoin:round;stroke-miterlimit:10;}
	.st7{fill:none;stroke:#263238;stroke-width:2;stroke-linecap:round;stroke-linejoin:round;stroke-miterlimit:10;}
	.st8{fill:none;stroke:#FFFFFF;stroke-linecap:round;stroke-linejoin:round;stroke-miterlimit:10;}
	.st9{fill:none;stroke:#263238;stroke-width:3;stroke-linecap:round;stroke-linejoin:round;stroke-miterlimit:10;}
	.st10{fill:none;stroke:#F0AE00;stroke-linecap:round;stroke-linejoin:round;stroke-miterlimit:10;}
	.st11{fill:none;stroke:#263238;stroke-width:1;stroke-linecap:round;stroke-linejoin:round;stroke-miterlimit:9.9999;}
	.st12{fill:#1A6CB6;}
	.st13{fill:#FFFFFF;}
	.st14{fill:#A2A7A9;}
</style>
<path class="st0" d="M1858,427.9c0,0-35.1-185.3-231.9-288.9c-196.8-103.6-436.8-76.3-536.6,38.1
	c-99.8,114.5-91.7,316.1-196.9,310.7s-145.6-149.9-291.2-57.2s-70.1,218-80.9,297c-10.8,79-134.8-43.6-234.6-10.9
	C186.2,749.4,140.4,842,151.2,896.5s-37.8,122.6-37.8,122.6h1760.8C1874.2,1019.2,1901.2,664.9,1858,427.9z"/>
<line class="st1" x1="21.6" y1="1020.2" x2="1902.1" y2="1020.2"/>
<g>
	<path class="st2" d="M340.8,725c7.9,3.5,27.2,3,27.2,3c0.2,0-4.1-12.6-4.5-13.4c-4.2-8.9-17.6-23.5-28.5-22
		c-7.9,1.1-12.2,8.9-10.5,16.3C326.3,716.5,334.1,722.1,340.8,725z"/>
	<path class="st2" d="M347.5,780.9c8.2,1.2,25.4-3.8,26.8-4.2c2.7,9.7,6.3,19.3,10.5,28.9c2.4,5.5,4.9,10.9,7.6,16.4
		c-1.6-2.3-3-4.3-3.2-4.6c-6.4-7.4-23.2-18-33.3-13.7c-7.3,3.1-9.4,11.8-5.8,18.5c3.7,6.8,12.7,10.2,20,11.2c7.4,1.1,22.1-2.9,26-4
		c1,2.1,2,4.2,3.1,6.2c5,9.9,10,19.8,14.6,29.7c1.6,3.5,3.1,7,4.6,10.4c-1.4-2-2.6-3.8-2.8-4c-6.4-7.4-23.2-18-33.3-13.7
		c-7.3,3.1-9.4,11.8-5.8,18.5c3.7,6.8,12.7,10.2,20,11.2c7,1,20.7-2.5,25.3-3.8c1.4,3.6,2.9,7.2,4.1,10.8c0.8,2.5,1.7,4.8,2.3,7.3
		c0.7,2.5,1.4,4.9,2,7.3c1.1,4.7,2.3,9.5,3.3,14.2c0.7,3.2,1.3,6.3,2,9.4c-1.6-3.5-4.8-10.2-5.2-10.8c-5.2-8.3-20.2-21.3-30.9-18.6
		c-7.7,2-11.1,10.3-8.5,17.4c2.7,7.3,11,12,18,14.1c7.7,2.4,24.8,0.2,27-0.1c1,5.1,2,10.1,2.8,14.8c1.8,10.4,3.2,19.7,4.3,27.6h7.2
		c-1.3-8.2-2.9-17.9-5.1-28.8c-1-5.2-2.2-10.7-3.5-16.4c1.3-0.5,8.6-3.5,15-7.1c5.6,6.1,20.1,13.2,21.9,14.1
		c-2,4.8-3.9,9.5-5.8,13.9c-4,9.2-7.8,17.3-11.1,24.3h7.8c2.9-6.4,6-13.7,9.3-21.7c2-4.9,4.1-10.2,6.1-15.6c2.1,0.4,19,3.9,26.9,2.1
		c7.2-1.6,15.8-5.7,19-12.7c3.1-6.9,0.3-15.5-7.2-18c-10.4-3.5-26.4,8.3-32.2,16.3c-0.4,0.5-3.5,5.9-5.5,9.4
		c0.8-2.2,1.7-4.4,2.5-6.7c1.7-4.5,3.2-9.1,4.9-14c0.7-2.4,1.5-4.8,2.2-7.3c0.8-2.4,1.3-5.1,2-7.6c1.4-6,2.6-12.1,3.6-18.2
		c4,1.5,18.2,6.4,25.5,5.9c7.3-0.5,16.5-3.2,20.7-9.7c4.2-6.4,2.7-15.2-4.4-18.9c-9.8-5-27.3,4.3-34.3,11.2c-0.4,0.4-4.9,6-7.3,9
		c0.6-3.7,1.2-7.4,1.6-11.2c1.4-10.9,2.4-22,3.5-33c0.3-3.4,0.7-6.8,1-10.1c1.4,0.5,18.1,6.8,26.4,6.2c7.3-0.5,16.5-3.2,20.7-9.7
		c4.2-6.4,2.7-15.2-4.4-18.9c-9.8-5-27.3,4.3-34.3,11.2c-0.5,0.5-6.9,8.5-8.4,10.6c0.8-7.4,1.6-14.8,2.8-22.1
		c1.5-10,3.6-19.8,6.3-29c0.7,0.3,18.1,6.8,26.5,6.2c7.3-0.5,16.5-3.2,20.7-9.7c4.2-6.4,2.7-15.2-4.4-18.9
		c-9.8-5-27.3,4.3-34.3,11.2c-0.5,0.5-7.4,9.1-8.5,10.8c0.2-0.5,0.3-1.1,0.4-1.7c3-9.9,7.2-19.1,11.5-27.5c2.5-4.9,5.2-9.4,7.9-13.8
		c3.1,1.6,17.5,8.5,25.1,8.8c7.3,0.3,16.8-1.4,21.7-7.4c4.8-5.9,4.3-14.9-2.3-19.2c-9.2-6.1-27.6,1.2-35.3,7.3
		c-0.4,0.3-4.3,4.2-7.1,7c1.2-2,2.5-4,3.7-5.8c4.6-6.9,9.2-13,13.4-18.3c2.4-3,4.6-5.7,6.7-8.2c3.9-0.1,19.4-0.5,26.2-3.7
		c6.6-3.1,14.2-8.9,15.8-16.5c1.6-7.4-3-15.2-10.9-16c-10.9-1.2-23.9,13.8-27.9,22.8c-0.3,0.8-4.3,13.5-4.2,13.5c0,0,0.2,0,0.2,0
		c-2.1,2.3-4.3,4.9-6.6,7.7c-4.3,5.3-9.1,11.2-13.8,18.1c-4.8,6.8-9.8,14.4-14.3,22.8c-4.6,8.5-9,17.6-12.3,27.6
		c0,0.1-0.1,0.2-0.1,0.3c0.1-3.2-0.1-12.2-0.2-12.9c-1.3-9.7-9.4-27.8-20.3-29.8c-7.8-1.4-14.4,4.7-15,12.3
		c-0.6,7.7,5,15.5,10.5,20.4c6.2,5.5,23.3,10.8,24.7,11.3c-3,9.5-5.4,19.6-7.2,29.9c-1,5.9-1.9,11.8-2.7,17.8c0-2.8-0.1-5.3-0.1-5.6
		c-1.3-9.7-9.4-27.8-20.3-29.8c-7.8-1.4-14.4,4.7-15,12.3c-0.6,7.7,5,15.5,10.5,20.4c5.5,5,20.1,9.8,23.9,11
		c-0.3,2.3-0.6,4.6-0.9,6.9c-1.3,11-2.6,22.1-4.2,32.8c-0.5,3.8-1.2,7.5-1.9,11.2c0-2.5-0.1-4.6-0.1-4.9
		c-1.3-9.7-9.4-27.8-20.3-29.8c-7.8-1.4-14.4,4.7-15,12.3c-0.6,7.7,5,15.5,10.5,20.4c5.3,4.7,18.7,9.3,23.2,10.8
		c-0.8,3.8-1.6,7.6-2.5,11.2c-0.7,2.5-1.2,4.9-2.1,7.3c-0.8,2.4-1.6,4.8-2.3,7.2c-1.6,4.5-3.3,9.2-5,13.6c-1.2,3.1-2.4,6-3.5,8.9
		c0.6-3.8,1.6-11.2,1.6-11.8c0.1-6.5-2.2-17.1-6.8-24.6c0-1,0-1.9-0.2-2.9c-1.2-7.5-8.3-13.1-15.9-11c-10.6,2.8-17.4,21.5-17.9,31.3
		c0,0.6,0.4,6.9,0.6,10.9c-0.5-2.3-1-4.6-1.6-6.9c-1.1-4.7-2.4-9.4-3.7-14.4c-0.7-2.4-1.5-4.8-2.2-7.3c-0.7-2.4-1.7-4.9-2.6-7.4
		c-2.1-5.8-4.5-11.5-7.1-17.2c4.1-1,18.7-4.7,24.5-9.2c5.8-4.5,12-11.8,11.9-19.5c-0.1-7.6-6.2-14.2-14.1-13.3
		c-10.9,1.2-20.4,18.6-22.4,28.2c-0.1,0.6-0.8,7.7-1,11.5c-1.6-3.4-3.1-6.8-4.8-10.3c-4.9-9.8-10.1-19.7-15.3-29.5
		c-1.6-3-3.1-6-4.7-9c1.5-0.3,18.9-4.4,25.4-9.4c5.8-4.5,12-11.8,11.9-19.5c0-7.6-6.2-14.2-14.1-13.3c-10.9,1.2-20.4,18.6-22.4,28.2
		c-0.1,0.7-1.1,10.9-1.2,13.5c-3.4-6.6-6.8-13.3-9.9-20c-4.2-9.2-7.9-18.5-10.7-27.7c0.7-0.2,18.9-4.3,25.6-9.4
		c5.8-4.5,12-11.8,11.9-19.5c0-7.6-6.2-14.2-14.1-13.3c-10.9,1.2-20.4,18.6-22.4,28.2c-0.2,0.8-1.1,11.7-1.2,13.7
		c-0.2-0.5-0.4-1.1-0.6-1.7c-2.9-9.9-4.5-19.9-5.6-29.3c-0.6-5.5-0.9-10.7-1-15.8c3.5-0.4,19.3-2.5,25.8-6.5
		c6.3-3.8,13.2-10.4,14-18.1c0.8-7.6-4.6-14.8-12.5-14.8c-11,0-22.4,16.3-25.4,25.6c-0.2,0.5-1.3,5.9-2,9.8c0-2.3-0.1-4.7-0.1-6.9
		c0-8.3,0.5-15.9,1.1-22.7c0.3-3.8,0.7-7.3,1.1-10.5c3.2-2.2,15.9-11.2,19.8-17.6c3.8-6.3,6.9-15.3,4.1-22.5
		c-2.8-7.1-10.9-11-17.9-7.4c-9.8,5-12.4,24.7-10.7,34.4c0.1,0.8,3.8,13.7,4,13.6c0,0,0.2-0.1,0.2-0.1c-0.4,3.1-0.9,6.4-1.2,10.1
		c-0.7,6.8-1.4,14.4-1.6,22.7c-0.2,8.3-0.2,17.4,0.6,27c0.9,9.6,2.2,19.6,5,29.8c0,0.1,0.1,0.2,0.1,0.3c-1.7-2.7-6.8-10.2-7.3-10.7
		c-6.4-7.4-23.2-18-33.3-13.7c-7.3,3.1-9.4,11.8-5.8,18.5C331.2,776.5,340.2,779.9,347.5,780.9z"/>
	<path class="st2" d="M536.1,729.3c0.2,0.1,3.5-12.8,3.6-13.7c1.3-9.7-1.8-29.3-11.7-34.1c-7.1-3.5-15.1,0.7-17.7,7.8
		c-2.7,7.3,0.7,16.3,4.7,22.4C519.8,719,536.1,729.2,536.1,729.3z"/>
</g>
<g>
	<path class="st2" d="M1729.2,868.2c4.7,2.1,16.3,1.8,16.3,1.8c0.1,0-2.5-7.6-2.7-8c-2.5-5.3-10.6-14-17.1-13.2
		c-4.7,0.6-7.3,5.3-6.3,9.8C1720.5,863.1,1725.2,866.5,1729.2,868.2z"/>
	<path class="st2" d="M1733.2,901.7c4.9,0.7,15.2-2.3,16-2.5c1.6,5.8,3.8,11.6,6.3,17.3c1.4,3.3,2.9,6.5,4.5,9.8
		c-0.9-1.4-1.8-2.6-1.9-2.8c-3.8-4.4-13.9-10.8-19.9-8.2c-4.4,1.8-5.6,7.1-3.4,11.1c2.2,4.1,7.6,6.1,11.9,6.7
		c4.4,0.6,13.3-1.7,15.6-2.4c0.6,1.2,1.2,2.5,1.8,3.7c3,5.9,6,11.9,8.8,17.8c1,2.1,1.9,4.2,2.8,6.2c-0.8-1.2-1.6-2.3-1.7-2.4
		c-3.8-4.4-13.9-10.8-19.9-8.2c-4.4,1.8-5.6,7.1-3.4,11.1c2.2,4.1,7.6,6.1,11.9,6.7c4.2,0.6,12.4-1.5,15.2-2.3
		c0.8,2.2,1.7,4.3,2.4,6.4c0.5,1.5,1,2.8,1.4,4.3c0.4,1.5,0.8,2.9,1.2,4.4c0.7,2.8,1.4,5.7,2,8.5c0.4,1.9,0.8,3.8,1.2,5.6
		c-0.9-2.1-2.9-6.1-3.1-6.4c-3.1-5-12.1-12.8-18.5-11.1c-4.6,1.2-6.7,6.1-5.1,10.4c1.6,4.4,6.6,7.2,10.8,8.5
		c4.6,1.4,14.8,0.1,16.1,0c0.6,3.1,1.2,6,1.7,8.9c1.1,6.2,1.9,11.8,2.6,16.5h4.3c-0.8-4.9-1.7-10.7-3-17.2c-0.6-3.1-1.3-6.4-2.1-9.8
		c0.8-0.3,5.1-2.1,9-4.2c3.4,3.7,12,7.9,13.1,8.5c-1.2,2.9-2.3,5.7-3.5,8.3c-2.4,5.5-4.7,10.4-6.7,14.5h4.7c1.7-3.8,3.6-8.2,5.6-13
		c1.2-2.9,2.4-6.1,3.7-9.3c1.2,0.3,11.4,2.3,16.1,1.3c4.3-1,9.5-3.4,11.4-7.6c1.9-4.1,0.2-9.3-4.3-10.8c-6.2-2.1-15.8,5-19.3,9.7
		c-0.2,0.3-2.1,3.5-3.3,5.6c0.5-1.3,1-2.6,1.5-4c1-2.7,1.9-5.5,2.9-8.4c0.4-1.4,0.9-2.9,1.3-4.3c0.5-1.5,0.8-3,1.2-4.6
		c0.8-3.6,1.5-7.2,2.1-10.9c2.4,0.9,10.9,3.8,15.3,3.5c4.4-0.3,9.9-1.9,12.4-5.8c2.5-3.8,1.6-9.1-2.6-11.3c-5.8-3-16.3,2.5-20.5,6.7
		c-0.3,0.3-2.9,3.6-4.3,5.4c0.3-2.2,0.7-4.4,1-6.7c0.8-6.5,1.4-13.2,2.1-19.8c0.2-2,0.4-4,0.6-6.1c0.8,0.3,10.9,4,15.8,3.7
		c4.4-0.3,9.9-1.9,12.4-5.8c2.5-3.8,1.6-9.1-2.6-11.3c-5.8-3-16.3,2.5-20.5,6.7c-0.3,0.3-4.1,5.1-5,6.3c0.5-4.5,1-8.9,1.7-13.2
		c0.9-6,2.2-11.8,3.8-17.4c0.4,0.2,10.8,4.1,15.9,3.7c4.4-0.3,9.9-1.9,12.4-5.8c2.5-3.8,1.6-9.1-2.6-11.3c-5.8-3-16.3,2.5-20.5,6.7
		c-0.3,0.3-4.4,5.5-5.1,6.4c0.1-0.3,0.2-0.7,0.3-1c1.8-5.9,4.3-11.4,6.9-16.4c1.5-2.9,3.1-5.6,4.7-8.3c1.9,0.9,10.4,5.1,15,5.3
		c4.4,0.2,10-0.8,13-4.4c2.9-3.5,2.6-8.9-1.4-11.5c-5.5-3.6-16.5,0.7-21.1,4.4c-0.3,0.2-2.6,2.5-4.2,4.2c0.7-1.2,1.5-2.4,2.2-3.5
		c2.8-4.2,5.5-7.8,8-11c1.4-1.8,2.8-3.4,4-4.9c2.3,0,11.6-0.3,15.7-2.2c4-1.9,8.5-5.3,9.5-9.9c0.9-4.5-1.8-9.1-6.5-9.6
		c-6.5-0.7-14.3,8.3-16.7,13.6c-0.2,0.5-2.6,8.1-2.5,8.1c0,0,0.1,0,0.1,0c-1.2,1.4-2.6,2.9-3.9,4.6c-2.6,3.1-5.4,6.7-8.3,10.8
		c-2.9,4.1-5.9,8.6-8.6,13.7c-2.7,5.1-5.4,10.5-7.3,16.5c0,0.1,0,0.1-0.1,0.2c0-1.9-0.1-7.3-0.1-7.7c-0.8-5.8-5.6-16.6-12.1-17.8
		c-4.7-0.9-8.6,2.8-9,7.3c-0.4,4.6,3,9.3,6.3,12.2c3.7,3.3,13.9,6.5,14.8,6.7c-1.8,5.7-3.2,11.7-4.3,17.9c-0.6,3.5-1.2,7.1-1.6,10.7
		c0-1.7-0.1-3.2-0.1-3.4c-0.8-5.8-5.6-16.6-12.1-17.8c-4.7-0.9-8.6,2.8-9,7.3c-0.4,4.6,3,9.3,6.3,12.2c3.3,3,12,5.9,14.3,6.6
		c-0.2,1.4-0.3,2.8-0.5,4.1c-0.8,6.6-1.6,13.2-2.5,19.6c-0.3,2.3-0.7,4.5-1.1,6.7c0-1.5-0.1-2.7-0.1-2.9
		c-0.8-5.8-5.6-16.6-12.1-17.8c-4.7-0.9-8.6,2.8-9,7.3c-0.4,4.6,3,9.3,6.3,12.2c3.2,2.8,11.2,5.6,13.9,6.5c-0.5,2.3-1,4.5-1.5,6.7
		c-0.4,1.5-0.7,2.9-1.2,4.4c-0.5,1.5-0.9,2.9-1.4,4.3c-1,2.7-2,5.5-3,8.2c-0.7,1.8-1.4,3.6-2.1,5.3c0.4-2.3,1-6.7,1-7.1
		c0.1-3.9-1.3-10.3-4.1-14.7c0-0.6,0-1.2-0.1-1.7c-0.7-4.5-4.9-7.8-9.5-6.6c-6.4,1.7-10.4,12.8-10.7,18.7c0,0.3,0.2,4.1,0.4,6.5
		c-0.3-1.4-0.6-2.7-1-4.2c-0.7-2.8-1.4-5.6-2.2-8.6c-0.4-1.4-0.9-2.9-1.3-4.3c-0.4-1.5-1-3-1.5-4.5c-1.3-3.4-2.7-6.9-4.2-10.3
		c2.5-0.6,11.2-2.8,14.7-5.5c3.5-2.7,7.2-7,7.1-11.7c0-4.5-3.7-8.5-8.4-8c-6.5,0.7-12.2,11.1-13.4,16.9c-0.1,0.4-0.5,4.6-0.6,6.9
		c-0.9-2-1.9-4.1-2.9-6.1c-2.9-5.9-6.1-11.8-9.2-17.6c-0.9-1.8-1.9-3.6-2.8-5.4c0.9-0.2,11.3-2.6,15.2-5.6c3.5-2.7,7.2-7,7.1-11.7
		c0-4.5-3.7-8.5-8.4-8c-6.5,0.7-12.2,11.1-13.4,16.9c-0.1,0.4-0.6,6.5-0.7,8.1c-2.1-4-4.1-7.9-5.9-11.9c-2.5-5.5-4.7-11.1-6.4-16.6
		c0.4-0.1,11.3-2.6,15.3-5.6c3.5-2.7,7.2-7,7.1-11.7c0-4.5-3.7-8.5-8.4-8c-6.5,0.7-12.2,11.1-13.4,16.9c-0.1,0.5-0.7,7-0.7,8.2
		c-0.1-0.3-0.2-0.7-0.3-1c-1.8-5.9-2.7-11.9-3.3-17.5c-0.4-3.3-0.5-6.4-0.6-9.5c2.1-0.3,11.5-1.5,15.4-3.9c3.8-2.3,7.9-6.2,8.4-10.8
		c0.5-4.5-2.7-8.8-7.5-8.8c-6.6,0-13.4,9.7-15.2,15.3c-0.1,0.3-0.8,3.5-1.2,5.8c0-1.4-0.1-2.8-0.1-4.1c0-5,0.3-9.5,0.6-13.6
		c0.2-2.3,0.4-4.4,0.7-6.3c1.9-1.3,9.5-6.7,11.8-10.5c2.3-3.8,4.2-9.2,2.4-13.5c-1.7-4.2-6.5-6.6-10.7-4.4c-5.8,3-7.4,14.8-6.4,20.6
		c0.1,0.5,2.3,8.2,2.4,8.1c0,0,0.1-0.1,0.1-0.1c-0.3,1.9-0.5,3.8-0.7,6c-0.4,4-0.8,8.6-0.9,13.6c-0.1,5-0.1,10.4,0.4,16.1
		c0.5,5.7,1.3,11.7,3,17.8c0,0.1,0.1,0.1,0.1,0.2c-1-1.6-4.1-6.1-4.4-6.4c-3.8-4.4-13.9-10.8-19.9-8.2c-4.4,1.8-5.6,7.1-3.4,11.1
		C1723.5,899,1728.8,901,1733.2,901.7z"/>
	<path class="st2" d="M1846,870.8c0.1,0.1,2.1-7.7,2.2-8.2c0.8-5.8-1.1-17.5-7-20.4c-4.3-2.1-9,0.4-10.6,4.7
		c-1.6,4.4,0.4,9.7,2.8,13.4C1836.2,864.6,1846,870.8,1846,870.8z"/>
</g>
<g>
	<g>
		<g>
			<path class="st3" d="M1174.9,880.5c0,0,45.2-6.9,93.6-7.7c48.4-0.8,64.3,2.4,76.2,6.3s22.5,37.3,6.9,69
				c-15.6,31.7-70.4,57.9-144.9,51.5c-74.6-6.3-127.7-21.4-156.3-42.8c-28.6-21.4-3.2-33.3,28.6-50.8
				C1110.6,888.8,1153.5,879.5,1174.9,880.5z"/>
			<path class="st4" d="M1113,953.8c0,0,111.1-61.1,149.9-72.2s83.3-13.5,103.9,0s15.9,57.1,6.3,73.8
				c-9.5,16.7-86.5,51.6-129.3,64.3c-42.8,12.7-210.2,11.9-256.2,15.9c-46,4-157,1.6-172.9-7.1c-15.9-8.7-6.3-18.2,16.7-23.8
				c23-5.5,99.2-5.5,134.8-15.9C1002,978.4,1086.8,967.3,1113,953.8z"/>
			<path class="st3" d="M1373.2,955.4c4.6-8.1,8.1-22.6,8.1-37c-28.8,22.8-73.5,49.8-135.4,71.9c-58.7,21-225,39.7-293.7,46.8
				c13.7-0.3,26-0.8,35.5-1.6c46-4,213.4-3.2,256.2-15.9C1286.7,1006.9,1363.7,972,1373.2,955.4z"/>
			<path class="st3" d="M1294.7,1000.9c11.8-5,23.6-10.4,34.3-15.8c2.4-11.7,5.2-45.9-19.9-112c-15.1,1.3-31,4.2-46.1,8.5
				C1262.9,881.6,1310,935.4,1294.7,1000.9z"/>
			<path class="st4" d="M1004.5,980c-14.9,3-28.4,5.9-38.2,8.7c-35.7,10.3-111.8,10.3-134.8,15.9s-32.5,15.1-16.7,23.8
				c15.9,8.7,126.9,11.1,172.9,7.1c5.4-0.5,12.6-0.9,21-1.2C990.3,1014.3,998.7,991,1004.5,980z"/>
		</g>
		<g>
			<path class="st4" d="M932.2,853.8c0,0-72.2,8.7-108.7,11.9c-36.5,3.2-102.3,32.5-115.8,61.1c-13.5,28.6,27,62.7,50,69.8
				c23,7.1,92,23,130.1,20.6c38.1-2.4,150.7-35.7,170.5-42c19.8-6.3,54.7-21.4,54.7-21.4s-33.3,0-89.6-28.6
				C967.1,896.7,958.3,867.3,932.2,853.8z"/>
			<path class="st3" d="M777.2,876.5c0,0,56.9-5.9,83,13c26.1,19,42.7,77.1,42.7,77.1l120.5-41.4c0,0-9-9.6-31.6-36.9
				c-22.5-27.3-88.9-42.7-128.1-34.4C824.6,862.3,777.2,876.5,777.2,876.5z"/>
			<path class="st4" d="M1052.6,977c2.3-0.7,4.3-1.3,5.7-1.8c19.8-6.3,54.7-21.4,54.7-21.4s-25.6,0-69.8-19.2
				C1049.5,945.2,1055.8,960.7,1052.6,977z"/>
			<path class="st3" d="M1095.5,961.1c-30.5,3.8-83.3,12.2-143.4,29.2c-68.6,19.4-151.3,12.5-191.3,7.3c25.6,7.5,90.5,22,127,19.7
				c38.1-2.4,150.7-35.7,170.5-42C1068.9,971.8,1083.9,965.9,1095.5,961.1z"/>
		</g>
	</g>
	<g>
		<path class="st4" d="M1170.6,623.3l-16.3,160.3c0,0,7.7,38.6,12.9,54s10.3,40.3,7.7,42.9c-2.6,2.6-4.3,0.9-22.3,6
			s-39.4,36-66.9,48c-27.4,12-49.7,6-75.5-4.3c-25.7-10.3-73.7-72.9-84-74.6c-10.3-1.7-41.2-6.9-54-11.2
			c-12.9-4.3-28.3-22.3-28.3-22.3s-2.6,0-2.6-9.4s0.9-10.3,0.9-10.3s-6.9-6-8.6-13.7s16.3-48.9,16.3-74.6
			c0-25.7,12.9-122.6,12.9-134.6s18-14.6,36.9-22.3c18.9-7.7,118.3-44.6,120-54.9c1.7-10.3,8.6-82.3,8.6-82.3s53.3,57.1,60,61.7
			c8.6,6,12.9,12,12.9,12l-6,28.3c0,0,25.7,18.9,42.9,29.2c17.2,10.3,40.3,19.7,41.2,26.6"/>
	</g>
	<path class="st1" d="M901.2,811.9c3.9,3.1,7.8,7,11.4,12"/>
	<path class="st1" d="M841.4,812.8c0,0,24.6-17.1,49.3-7"/>
	<g>
		<path class="st4" d="M1110.6,533.2c-8.8-6.1-15.4-11-15.4-11l6-28.3c0,0-4.3-6-12.9-12c-6.7-4.7-60-61.7-60-61.7s-6.9,72-8.6,82.3
			c-0.6,3.3-11.4,9.5-26.5,16.5c2.6,16.5,12,44.1,45.3,54.7C1071.9,584.1,1097.6,553.7,1110.6,533.2z"/>
		<path class="st5" d="M1095.4,522.3c-0.2-0.1-0.3-0.2-0.3-0.2l6-28.3c0,0-4.3-6-12.9-12c-3.8-2.6-22.6-22.2-38.2-38.6l-3.9,18.8
			C1046.2,462,1046.2,516,1095.4,522.3z"/>
	</g>
	<g>
		<path class="st6" d="M1041.5,243.3c0,0-2.5-20.5-18.8-24.6c-16.4-4.1-54-1.6-67.1,22.9c-13.1,24.6-3.3,43.4,1.6,46.7
			c4.9,3.3,9,4.9,9,4.9l4.1-20.5c0,0,1.6,18,13.1,22.1c11.5,4.1,35.2,0,35.2,0S1039.1,280.1,1041.5,243.3z"/>
		<path class="st3" d="M1192.9,316.4c0,0,29.2,18.9,29.2,37.7s-36,25.7-36,25.7L1192.9,316.4z"/>
		<g>
			<path class="st4" d="M1199.6,320.2c0,0-3.3,39.3-6.6,61.4c-3.3,22.1-17.2,40.1-18,54.9c-0.8,14.7-33.6,50.8-49.9,63
				c-16.4,12.3-40.9,8.2-53.2-1.6c-12.3-9.8-32.8-33.6-42.6-59c-9.8-25.4-2.5-62.2,0-73.7s63.9-56.5,110.5-56.5
				S1199.6,320.2,1199.6,320.2z"/>
			<path class="st1" d="M1148,411.9c0,0,3.3,29.5,3.3,31.9c0,2.5-7.4,9.8-19.7,2.5"/>
			<path class="st1" d="M1098.9,446.3c0,0,13.1,16.4,34.4,15.6"/>
			<g>
				<path class="st7" d="M1143.1,385.7c0,0-27-16.4-61.4-11.5c0,0-9.8,0-4.1,7.4c0,0-2.5,24.6,3.3,31.9s18.8,13.1,31.9,13.1
					C1125.9,426.7,1139,411.1,1143.1,385.7z"/>
				<line class="st7" x1="1076.8" y1="375.1" x2="1023.5" y2="371.8"/>
				<path class="st7" d="M1143.1,385.7l13.9,4.1c0,0-5.7,30.3-2.5,38.5l0,0c2.1,5.3,6.7,9.3,12.2,10.7c4.6,1.2,10,2.4,13.2,2.4
					c6.6,0,20.5-13.1,23.7-36c0,0,4.1-1.6,2.5-4.1c-1.6-2.5-21.4-13.9-48.4-11.5"/>
				<path class="st7" d="M1142.3,393.1c0,0,10.4,0.7,13.5,4.6"/>
			</g>
			<path class="st5" d="M1114,402.5c-0.9,5.4-3.6,9.4-5.9,9c-2.3-0.4-3.5-5.1-2.5-10.5c0.9-5.4,3.6-9.4,5.9-9
				S1114.9,397.1,1114,402.5z"/>
			
				<ellipse transform="matrix(0.2676 -0.9635 0.9635 0.2676 456.1956 1431.8668)" class="st5" cx="1170" cy="415.9" rx="8.8" ry="3.8"/>
			<path class="st7" d="M1096.9,383.3c0,0,20.6-6.9,30,4.3"/>
			<path class="st7" d="M1164.6,398.7c0,0,9.4-8.6,17.2,3.4"/>
		</g>
		<g>
			<path class="st3" d="M1057.9,366.9c0,0,44.2-23.7,81.9-31.1s66.3-4.1,72.9-26.2c6.6-22.1-37.7-58.9-83.5-72.1
				c-45.8-13.1-100.7,0.8-122.8,33.6c-22.1,32.8-14.7,72.1-8.2,86.8s11.5,26.2,23.7,27.8C1034.2,387.4,1057.9,366.9,1057.9,366.9z"
				/>
			<g>
				<path class="st8" d="M1025.9,340.9c-4.8,2.9-8.8,6.1-11.9,9.9"/>
				<path class="st8" d="M1179.9,285.1c0,0,11.9,7.2-22.7,21.5c-25.1,10.4-76.1,13.3-111.7,25.5"/>
				<path class="st8" d="M1133.9,276.8c2.8-3.1,5.1-6.7,6.6-10.7"/>
				<path class="st8" d="M1005.6,336.5c0,0-10.7-15.5,26.3-26.3c26.7-7.8,65.2-10.5,89.1-23.6"/>
			</g>
		</g>
		<path class="st4" d="M1035,398c0,0-6.5-31.9-20.4-31.9s-15.8,14.7-10.2,32.8s14.9,23.7,23.2,18"/>
	</g>
	<path class="st1" d="M926.3,855.7c0,0,3.4-4.3,3.4-18c0-13.7-9.4-59.2-13.7-90.9c-4.3-31.7-8.6-92.6-8.6-118.3"/>
	<path class="st1" d="M1012.7,756.6c2.3,3.7,4.6,7,7.1,9.9"/>
	<path class="st1" d="M964.9,598.5c0,0,15.4,94.8,41.7,147.1"/>
	<path class="st1" d="M1018.7,679.1c3.5,6.6,7,12.6,10.5,18"/>
	<path class="st1" d="M975.2,571.9c0,0,17.2,53.2,37.6,95.4"/>
	<g>
		<path class="st4" d="M790.8,818.8c0,0,9.4,7.7,28.3,7.7s35.2-9.4,59.2-3.4c24,6,24,30,21.4,36.9c-2.6,6.9-25.7,11.2-47.2,8.6
			c-21.4-2.6-65.2-6.9-65.2-6.9S794.3,836.8,790.8,818.8z"/>
		<g>
			<path class="st4" d="M773.3,797c0,0,2,8.9,12.9,14.9c10.9,6,14.9,21.8,14.9,30.8s-2,13.9-2,13.9s-3,11.9-12.9,13.9
				c-9.9,2-15.9,7.9-27.8-4c-11.9-11.9-28.8-49.6-28.8-49.6l2-6c0,0,9.9,0,17.8-4C757.5,803,773.3,797,773.3,797z"/>
			<line class="st9" x1="717.8" y1="756.3" x2="786.2" y2="870.4"/>
			<path class="st4" d="M738.6,869.4c0,0,7.9,7.9,21.8,7.9s27.8-8.9,20.8-11.9c-6.9-3-11.9-6-16.9-4
				C759.5,863.5,738.6,869.4,738.6,869.4z"/>
			<path class="st4" d="M728.7,854.5c0,0,6,16.9,10.9,18.8c5,2,25.8-3,31.7-6.9c6-4-4-10.9-12.9-10.9
				C749.5,855.5,728.7,854.5,728.7,854.5z"/>
			<path class="st4" d="M724.7,828.8c0,0-4,20.8,4,25.8c7.9,5,38.7,6.9,41.7,1c3-6-7.9-8.9-18.8-13.9
				C740.6,836.7,724.7,828.8,724.7,828.8z"/>
			<path class="st4" d="M755.5,800c0,0,1,38.7,5,42.7c4,4,12.9,5,14.9,2c2-3,4-36.7-2-47.6C767.4,786.1,755.5,800,755.5,800z"/>
			<path class="st4" d="M731.7,810.9c0,0-12.9-3-12.9,9.9c0,12.9,17.8,20.8,25.8,21.8s16.9-2,9.9-7.9
				C747.5,828.8,737.6,815.9,731.7,810.9z"/>
		</g>
	</g>
	<g>
		<path class="st3" d="M829,873.7l55.5-7.9c0,0-7.1-10.3-25.4-10.3s-29.3,8.7-31.7,11.9C825.1,870.5,829,873.7,829,873.7z"/>
		<path class="st4" d="M940.9,939.5l88.8-30.9c0,0-21.4-45.2-61.9-61.1c-40.5-15.9-100.5-11.8-125.8-2.3l9.2,10.2
			c0,0,18.2,0.8,38.1,23.8c19.8,23,39.7,59.5,39.7,59.5L940.9,939.5z"/>
		<g>
			<path class="st10" d="M885.5,849.5c0,0,35.3-5,72.2,73.9"/>
			<path class="st10" d="M902.8,846c0,0,35.3-5,72.2,73.9"/>
			<path class="st10" d="M917.5,843.3c0,0,35.3-5,72.2,73.9"/>
		</g>
		<path class="st4" d="M704.5,929.2c0,0,39.7-58.7,113.4-53.9l11.1-1.6c0,0,7.1-16.7,27.8-12.7s73.8,85.7,73.8,85.7l10.3-7.1
			c0,0-28.1-47.5-49.5-74.5c-21.4-27-49.4-26-58.4-16.2c-5.5,6-13,19.7-13,19.7s-8.2-12.5-32.6-6.9c-30,6.9-46.5,20.2-55,29.4
			c-12.4,13.4-37.4,31.6-35,30.2L704.5,929.2z"/>
		<polygon class="st4" points="930.6,946.7 1025,914.1 1029.7,908.6 940.9,939.5 		"/>
	</g>
</g>
<g>
	<path class="st4" d="M1163.4,565.5c0,0,34.1,11.8,39.2,29.8c5.1,18,30.6,116.4,37.5,131s22.3,23.2,22.3,34.3
		c0,11.2,0.9,19.7,0.9,19.7s18,0.9,19.7,15.4c1.7,14.6,5.1,33.4,5.1,33.4l68.6,106.1c0,0,40.9,3.3,50.3,2.4
		c9.4-0.9,37.5,0.9,47.7,6.3c4,2.1,11.9,8.9,18.1,30.7c3.1,10.8,9.9,31.8,5.6,31s-9.6-12.8-11.3-15.4s-6.7-17.2-6.7-17.2
		s3.4,24.9,4.3,30c0.9,5.1-1.7,10.3-1.7,10.3l-0.4,0.2c-4.2,1.7-8.9,2-13.3,0.8l-3.5-1l0,0c-3.3,1.8-7.2,2.2-10.8,1.1l-3.8-1.1
		c0,0-5.6-17.6-10.7-24.5s-21.3-14.3-21.3-14.3s17.4,19.9,16.6,32.8c-0.3,5.2,0.9,9.4-3.4,6.9s-9.4-15.4-18.9-19.7
		c-9.4-4.3-31.7-10.3-40.3-15.4c-8.6-5.1-22.3-24-22.3-24L1218.7,854c0,0-11.2-11.2-12.9-17.2s-1.7-6-1.7-6s-15.4-9.4-19.7-14.6
		c-4.3-5.1-6-16.3-6-16.3l-23.2-26.6l15.4-146.6"/>
	<path class="st4" d="M1161.9,660.7l-6.7,112.7l23.2,26.6c0,0,1.7,11.2,6,16.3s19.7,14.6,19.7,14.6s0,0,1.7,6s12.9,17.2,12.9,17.2
		l16.8,15.1c6.8-13.3,23.1-37.3,52.4-41.2c-0.8-4.3-3.5-19.8-4.9-32.2c-1.7-14.6-19.7-15.4-19.7-15.4s-0.9-8.6-0.9-19.7
		c0-11.2-15.4-19.7-22.3-34.3s-32.4-113-37.5-131s-39.2-29.8-39.2-29.8"/>
	<polygon class="st5" points="1160.5,694.8 1171.8,791.1 1155.2,773.4 	"/>
	<g>
		<path class="st1" d="M1240.2,795.3c2.4-1.7,4.9-3.3,7.6-4.8"/>
		<path class="st1" d="M1212.6,826.5c0,0,5.3-12.2,19-24.4"/>
		<path class="st1" d="M1231.3,780.1c3.6-0.6,7.4-0.8,11.3-0.7"/>
		<path class="st1" d="M1189.5,800.8c0,0,11.3-10.9,28.5-17.2"/>
	</g>
	<path class="st1" d="M1403.8,980.8c0,0-9.4-12.9-22.3-13.7"/>
	<path class="st1" d="M1408.1,952.5c0,0,10.3,2.6,23.2,18.9s16.3,40.3,16.3,40.3"/>
	<path class="st1" d="M1432.7,949.1c0,0,19.2,15.4,22.6,30c3.4,14.6,7.7,34.3,7.7,34.3"/>
	<path class="st1" d="M1460.4,973.1c0,0-3.4-15.4-12-27.4"/>
</g>
<g>
	<polygon class="st4" points="1720.2,1007.4 1483.6,1007.4 1548.7,791.3 1785.3,791.3 	"/>
	<path class="st3" d="M1720.2,1007.4l55.2-183.1c-69.9,8.6-111,66.2-175.6,129.3c-40.7,39.7-68.9,51.1-85.5,53.7H1720.2z"/>
	<ellipse class="st4" cx="1643.9" cy="889.1" rx="18.7" ry="18"/>
	<rect x="1280.4" y="1006.5" class="st4" width="442.4" height="13.7"/>
	<rect x="1496.4" y="1006.5" class="st3" width="226.3" height="13.7"/>
</g>
<g>
	<g>
		<path class="st4" d="M704.1,969.6H526.8c-15.7,0-28.4,12.7-28.4,28.4v3.1c0,15.7,12.7,28.4,28.4,28.4h177.3c0,0-9.5-14.2-9.5-30.4
			C694.6,983.1,704.1,969.6,704.1,969.6z"/>
		<path class="st4" d="M619.9,969.6H442.6c-15.7,0-28.4,12.7-28.4,28.4v3.1c0,15.7,12.7,28.4,28.4,28.4h177.3c0,0-9.5-14.2-9.5-30.4
			C610.4,983.1,619.9,969.6,619.9,969.6z"/>
		<path class="st4" d="M414.1,998.1v3.1c0,11.4,6.7,21.2,16.5,25.8l3.9,0.2V974l-2.3-2.4C421.6,975.8,414.1,986,414.1,998.1z"/>
		<path class="st9" d="M704.1,969.6H442.6c-15.7,0-28.4,12.7-28.4,28.4v3.1c0,15.7,12.7,28.4,28.4,28.4h261.5"/>
		<g>
			<line class="st1" x1="435.4" y1="982.8" x2="522.1" y2="982.8"/>
			<line class="st1" x1="534.5" y1="990.8" x2="547.8" y2="990.8"/>
			<line class="st1" x1="452.2" y1="990.8" x2="523" y2="990.8"/>
			<line class="st1" x1="435.4" y1="1008.5" x2="479.6" y2="1008.5"/>
			<line class="st1" x1="568.1" y1="1018.3" x2="577.9" y2="1018.3"/>
			<line class="st1" x1="506.2" y1="1018.3" x2="560.2" y2="1018.3"/>
			<line class="st1" x1="452.2" y1="1018.3" x2="490.2" y2="1018.3"/>
		</g>
	</g>
	<g>
		<path class="st4" d="M528.5,969.6H280.1c-15.7,0-28.4,12.7-28.4,28.4v3.1c0,15.7,12.7,28.4,28.4,28.4h248.4c0,0-9.5-14.2-9.5-30.4
			C519,983.1,528.5,969.6,528.5,969.6z"/>
		<g>
			<line class="st1" x1="377.4" y1="979.1" x2="377.4" y2="1022"/>
			<line class="st1" x1="378.8" y1="985.8" x2="449.9" y2="985.8"/>
			<line class="st1" x1="378.8" y1="996.5" x2="476.8" y2="996.5"/>
			<line class="st1" x1="409" y1="1008.6" x2="434.5" y2="1008.6"/>
			<line class="st1" x1="466.7" y1="1016.6" x2="390.2" y2="1016.6"/>
		</g>
		<path class="st3" d="M365.1,1001.2v-3.1c0-15.7,12.7-28.4,28.4-28.4H280.1c-15.7,0-28.4,12.7-28.4,28.4v3.1
			c0,15.7,12.7,28.4,28.4,28.4h113.4C377.8,1029.6,365.1,1016.9,365.1,1001.2z"/>
		<path class="st9" d="M515.4,969.6H280.1c-15.7,0-28.4,12.7-28.4,28.4v3.1c0,15.7,12.7,28.4,28.4,28.4h235.3"/>
		<path class="st9" d="M533.8,969.6H394.2c-15.7,0-28.4,12.7-28.4,28.4v3.1c0,15.7,12.7,28.4,28.4,28.4h139.6"/>
	</g>
	<g>
		<path class="st4" d="M675.9,910.5H498.5c-15.7,0-28.4,12.7-28.4,28.4v3.1c0,15.7,12.7,28.4,28.4,28.4h177.3c0,0-9.5-14.2-9.5-30.4
			S675.9,910.5,675.9,910.5z"/>
		<path class="st4" d="M591.7,910.5H414.4c-15.7,0-28.4,12.7-28.4,28.4v3.1c0,15.7,12.7,28.4,28.4,28.4h177.3c0,0-9.5-14.2-9.5-30.4
			S591.7,910.5,591.7,910.5z"/>
		<path class="st4" d="M385.9,939v3.1c0,11.4,6.7,21.2,16.5,25.8l3.9,0.2v-53.1l-2.3-2.4C393.4,916.7,385.9,926.9,385.9,939z"/>
		<path class="st9" d="M675.9,910.5H414.4c-15.7,0-28.4,12.7-28.4,28.4v3.1c0,15.7,12.7,28.4,28.4,28.4h261.5"/>
		<g>
			<line class="st1" x1="407.2" y1="923.8" x2="493.9" y2="923.8"/>
			<line class="st1" x1="506.3" y1="931.7" x2="519.6" y2="931.7"/>
			<line class="st1" x1="424" y1="931.7" x2="494.8" y2="931.7"/>
			<line class="st1" x1="407.2" y1="949.4" x2="451.4" y2="949.4"/>
			<line class="st1" x1="539.9" y1="959.2" x2="549.7" y2="959.2"/>
			<line class="st1" x1="478" y1="959.2" x2="532" y2="959.2"/>
			<line class="st1" x1="424" y1="959.2" x2="462" y2="959.2"/>
		</g>
	</g>
</g>
<g>
	<g>
		<path class="st1" d="M1376.6,751.3h-60.6c-2.6,0-4.6-2.1-4.6-4.6v-17.6c0-2.6,2.1-4.6,4.6-4.6h81.3c2.6,0,4.6,2.1,4.6,4.6v6.9"/>
		<path class="st1" d="M1376,780v-37.7c0-3.3,2.7-6,6-6h80.5c3.3,0,6,2.7,6,6v45.1"/>
		<path class="st1" d="M1468.5,824.6v47c0,3.3-2.7,6-6,6H1382c-3.3,0-6-2.7-6-6V789"/>
		<line class="st1" x1="1381.7" y1="758.3" x2="1462.8" y2="758.3"/>
		<line class="st1" x1="1420.4" y1="782.8" x2="1462.8" y2="782.8"/>
		<line class="st1" x1="1381.7" y1="782.8" x2="1413.8" y2="782.8"/>
		<line class="st1" x1="1381.7" y1="807.2" x2="1462.8" y2="807.2"/>
		<line class="st1" x1="1448.3" y1="831.7" x2="1462.8" y2="831.7"/>
		<line class="st1" x1="1381.7" y1="831.7" x2="1440.9" y2="831.7"/>
		<line class="st1" x1="1381.7" y1="856.1" x2="1462.8" y2="856.1"/>
		<line class="st1" x1="1327.7" y1="737.3" x2="1371.8" y2="737.3"/>
	</g>
	<g>
		<g>
			<g>
				<path class="st1" d="M747.7,272.5h-74.8c-3.2,0-5.7-2.6-5.7-5.7v-21.8c0-3.2,2.6-5.7,5.7-5.7h100.3c3.2,0,5.7,2.6,5.7,5.7v8.5"
					/>
				<path class="st1" d="M747,307.9v-46.5c0-4.1,3.3-7.4,7.5-7.4h99.3c4.1,0,7.5,3.3,7.5,7.4v55.7"/>
				<path class="st1" d="M861.3,363v58c0,4.1-3.3,7.5-7.5,7.5h-99.3c-4.1,0-7.5-3.3-7.5-7.5V319.1"/>
				<line class="st1" x1="754.1" y1="281.1" x2="854.2" y2="281.1"/>
				<line class="st1" x1="801.9" y1="311.3" x2="854.2" y2="311.3"/>
				<line class="st1" x1="754.1" y1="311.3" x2="793.7" y2="311.3"/>
				<line class="st1" x1="754.1" y1="341.5" x2="854.2" y2="341.5"/>
				<line class="st1" x1="836.2" y1="371.7" x2="854.2" y2="371.7"/>
				<line class="st1" x1="754.1" y1="371.7" x2="827.2" y2="371.7"/>
				<line class="st1" x1="754.1" y1="401.8" x2="854.2" y2="401.8"/>
				<line class="st1" x1="687.4" y1="255.2" x2="741.9" y2="255.2"/>
			</g>
			<g>
				<g>
					<path class="st5" d="M876.2,366c-4.2,0-8.3-1.6-11.5-4.7L854,350.7c-1.3-1.3-1.5-3.2-0.5-4.8c0.6-1,1.6-1.6,2.8-1.8
						s2.3,0.2,3.1,1l2.1,2l-10.7-22.1c-0.5-1.1-0.6-2.4-0.1-3.5c0.4-1.2,1.3-2.1,2.5-2.6c2.3-1,4.9,0,5.9,2.2l4,7.8
						c0.8-0.9,1.8-1.5,2.9-1.6c1.7-0.3,3.3,0.6,4.2,1.2c0.8-1,1.9-1.6,3-1.8c1.4-0.2,2.7,0.4,3.6,0.9c0.6-1.3,1.7-2,3.1-1.9
						c1.4,0.1,2.8,1,3.5,2.3l7.6,13.9c3.7,7.3,1.6,16.1-5,20.9C882.9,364.9,879.5,366,876.2,366z M856.7,345.9c-0.1,0-0.2,0-0.3,0
						c-0.6,0.1-1.2,0.4-1.5,1c-0.5,0.9-0.4,1.9,0.3,2.6l10.7,10.6c5.2,5,13.2,5.6,19,1.3c5.9-4.3,7.8-12.2,4.5-18.7l-7.5-13.9
						c-0.4-0.8-1.2-1.3-2.1-1.4c-0.7,0-1.5,0.1-1.7,1.7l-0.3,1.6l-1.2-1.1c0,0-1.6-1.4-3.3-1.2c-0.9,0.1-1.7,0.7-2.3,1.8l-0.6,0.9
						l-0.8-0.7c0,0-1.8-1.6-3.6-1.4c-1,0.1-1.8,0.8-2.5,2.1l-0.8,1.4l-5.4-10.6c-0.7-1.4-2.3-2-3.7-1.4c-0.7,0.3-1.3,0.9-1.5,1.6
						c-0.3,0.7-0.2,1.5,0.1,2.2l14.6,30.2l-8.7-8.1C857.8,346.1,857.2,345.9,856.7,345.9z"/>
				</g>
				<g>
					<path class="st5" d="M866.8,340.9c-0.3,0-0.7-0.2-0.8-0.5l-4-9.3c-0.2-0.4,0-0.9,0.5-1.1s0.9,0,1.1,0.5l4,9.3
						c0.2,0.4,0,0.9-0.5,1.1C867,340.8,866.9,340.9,866.8,340.9z"/>
				</g>
				<g>
					<path class="st5" d="M873.7,338.8c-0.3,0-0.7-0.2-0.8-0.5l-3.5-8.2c-0.2-0.4,0-0.9,0.5-1.1c0.4-0.2,0.9,0,1.1,0.5l3.5,8.2
						c0.2,0.4,0,0.9-0.5,1.1C874,338.8,873.8,338.8,873.7,338.8z"/>
				</g>
				<g>
					<path class="st5" d="M880.5,337c-0.3,0-0.6-0.2-0.8-0.5l-3.3-7.1c-0.2-0.4,0-0.9,0.4-1.1s0.9,0,1.1,0.4l3.3,7.2
						c0.2,0.4,0,0.9-0.4,1.1C880.7,337,880.6,337,880.5,337z"/>
				</g>
			</g>
		</g>
		
			<rect x="804" y="222.6" transform="matrix(0.7071 -0.7071 0.7071 0.7071 75.3642 640.3097)" class="st11" width="13.1" height="13.1"/>
		<path class="st1" d="M730.3,304.9c0-3.8-3.1-6.9-6.9-6.9s-6.9,3.1-6.9,6.9c0,3.8,3.1,6.9,6.9,6.9S730.3,308.8,730.3,304.9z"/>
	</g>
	<g>
		
			<rect x="1649.3" y="87.6" transform="matrix(0.7071 -0.7071 0.7071 0.7071 413.296 1210.7976)" class="st11" width="37.7" height="37.7"/>
		
			<rect x="728.8" y="820.9" transform="matrix(0.7071 -0.7071 0.7071 0.7071 -374.7979 774.65)" class="st11" width="37.7" height="37.7"/>
		
			<rect x="612.5" y="768.9" transform="matrix(0.7071 -0.7071 0.7071 0.7071 -372.094 677.1899)" class="st11" width="37.7" height="37.7"/>
		
			<rect x="1608.3" y="133" transform="matrix(0.7071 -0.7071 0.7071 0.7071 372.7397 1186.4982)" class="st11" width="20.6" height="20.6"/>
		<circle class="st1" cx="1623.4" cy="732.7" r="10.8"/>
		<circle class="st1" cx="728.5" cy="639.3" r="10.8"/>
		<circle class="st1" cx="1204.4" cy="128.1" r="10.8"/>
	</g>
</g>
<g>
	<rect x="1259.4" y="225.8" class="st2" width="523.1" height="471.9"/>
	<g>
		<rect x="1288.9" y="201.5" class="st4" width="527.3" height="473.9"/>
		<rect x="1427.8" y="201.5" class="st3" width="388.4" height="64.3"/>
		<rect x="1288.9" y="201.5" class="st4" width="527.3" height="33.4"/>
		<g>
			<rect x="1312.1" y="312.1" class="st3" width="321.5" height="205.8"/>
			<rect x="1312.1" y="495" class="st4" width="321.5" height="22.9"/>
			<rect x="1312.1" y="503.1" class="st4" width="321.5" height="6.7"/>
			<g>
				
					<ellipse transform="matrix(0.5227 -0.8525 0.8525 0.5227 347.3754 1448.4301)" class="st12" cx="1467.2" cy="414" rx="47.3" ry="47.3"/>
				<polygon class="st13" points="1494.7,415 1453.5,391.2 1453.5,438.8 				"/>
			</g>
		</g>
		<g>
			<rect x="1662.5" y="312.1" class="st3" width="127" height="81.3"/>
			<rect x="1662.5" y="384.3" class="st4" width="127" height="9"/>
			<rect x="1662.5" y="387.5" class="st4" width="127" height="2.6"/>
			<g>
				<circle class="st12" cx="1723.7" cy="352.3" r="18.7"/>
				<polygon class="st13" points="1734.6,352.8 1718.3,343.4 1718.3,362.1 				"/>
			</g>
		</g>
		<g>
			<rect x="1662.5" y="401.4" class="st3" width="127" height="81.3"/>
			<rect x="1662.5" y="473.6" class="st4" width="127" height="9"/>
			<rect x="1662.5" y="476.8" class="st4" width="127" height="2.6"/>
			<g>
				<path class="st12" d="M1742.4,441.6c0-10.3-8.4-18.7-18.7-18.7s-18.7,8.4-18.7,18.7c0,10.3,8.4,18.7,18.7,18.7
					C1734.1,460.3,1742.4,452,1742.4,441.6z"/>
				<polygon class="st13" points="1734.6,442 1718.3,432.6 1718.3,451.4 				"/>
			</g>
		</g>
		<g>
			<rect x="1662.5" y="490.7" class="st3" width="127" height="81.3"/>
			<rect x="1662.5" y="562.9" class="st4" width="127" height="9"/>
			<rect x="1662.5" y="566.1" class="st4" width="127" height="2.6"/>
			<g>
				<path class="st12" d="M1742.4,530.9c0-10.3-8.4-18.7-18.7-18.7s-18.7,8.4-18.7,18.7s8.4,18.7,18.7,18.7
					C1734.1,549.6,1742.4,541.2,1742.4,530.9z"/>
				<polygon class="st13" points="1734.6,531.3 1718.3,521.9 1718.3,540.7 				"/>
			</g>
		</g>
		<g>
			<rect x="1662.5" y="580" class="st3" width="127" height="81.3"/>
			<rect x="1662.5" y="652.2" class="st4" width="127" height="9"/>
			<rect x="1662.5" y="655.4" class="st4" width="127" height="2.6"/>
			<g>
				<path class="st12" d="M1742.4,620.2c0-10.3-8.4-18.7-18.7-18.7s-18.7,8.4-18.7,18.7s8.4,18.7,18.7,18.7
					S1742.4,630.5,1742.4,620.2z"/>
				<polygon class="st13" points="1734.6,620.6 1718.3,611.2 1718.3,630 				"/>
			</g>
		</g>
		<line class="st1" x1="1314.6" y1="539.6" x2="1560.8" y2="539.6"/>
		<g>
			<line class="st1" x1="1314.6" y1="597.8" x2="1460.9" y2="597.8"/>
			<line class="st1" x1="1314.6" y1="620.8" x2="1460.9" y2="620.8"/>
			<line class="st1" x1="1314.6" y1="643.8" x2="1460.9" y2="643.8"/>
		</g>
		<g>
			<line class="st1" x1="1488.9" y1="597.8" x2="1635.2" y2="597.8"/>
			<line class="st1" x1="1488.9" y1="620.8" x2="1635.2" y2="620.8"/>
			<line class="st1" x1="1488.9" y1="643.8" x2="1635.2" y2="643.8"/>
		</g>
		<line class="st1" x1="1314.6" y1="558.5" x2="1625.7" y2="558.5"/>
		<g>
			<rect x="1797" y="312.3" class="st14" width="12.7" height="352"/>
			<rect x="1797" y="397.6" class="st5" width="12.7" height="45"/>
		</g>
	</g>
	<line class="st1" x1="1680.1" y1="676.1" x2="1680.1" y2="792"/>
</g>
<g>
	<path class="st3" d="M1496.4,1006.5l0.9,0.9h2C1497.4,1007,1496.4,1006.5,1496.4,1006.5z"/>
</g>
</svg>
