<?xml version="1.0" encoding="utf-8"?>
<!-- Generator: Adobe Illustrator 25.2.0, SVG Export Plug-In . SVG Version: 6.00 Build 0)  -->
<svg version="1.1" id="Layer_1" xmlns="http://www.w3.org/2000/svg" xmlns:xlink="http://www.w3.org/1999/xlink" x="0px" y="0px"
	 viewBox="0 0 1538.82 542.24" style="enable-background:new 0 0 1538.82 542.24;" xml:space="preserve">
<style type="text/css">
	.st0{fill:#FF7C38;}
	.st1{fill:#FFFFFF;}
	.st2{enable-background:new    ;}
	.st3{display:none;}
	.st4{display:inline;}
	.st5{fill:#3A3A3A;}
	.st6{font-family:'NovaSlim';}
	.st7{font-size:336px;}
	.st8{font-family:'Aspergit-Bold';}
	.st9{font-size:117px;}
	.st10{letter-spacing:58;}
</style>
<g id="Layer_1_1_">
	<g>
		<path class="st0" d="M1415.04,512.69H522.31c-41.25,0-74.69-33.44-74.69-74.69l0,0c0-41.25,33.44-74.69,74.69-74.69h892.73
			c41.25,0,74.69,33.44,74.69,74.69l0,0C1489.72,479.25,1456.29,512.69,1415.04,512.69z"/>
		<g>
			<path class="st1" d="M277.08,370.16c-26.44-9.57-75.45,69.75-124.87,91.84c-11.59,5.18-20.87,0.94-25.71-2.81
				c-42.59-32.95,62.78-184.71,21.8-191.95c-33.61-5.93-108.41,74.69-118.97,86.29c12.54,89.93,89.74,159.15,183.11,159.15
				c27.05,0,52.74-5.81,75.89-16.24c0.51-0.31,0.93-0.57,1.22-0.74C275.05,451.22,295.14,376.7,277.08,370.16z"/>
			<g>
				<path class="st0" d="M392.16,284.15c-18.78-83.22-107.79-164.4-228.48-134.77c-57.88,15.79-104.46,58.97-124.9,114.77
					c47.13-25.02,113.8-49.85,155.22-27.13c8.83,4.84,38.17,27.32-22.5,154.68c14.01-12.45,98.96-91.34,146.65-63.88
					c25.88,14.9,8.52,81.85,12,142.58c41.05-33.92,67.21-85.21,67.21-142.62C397.35,312.75,395.54,298.14,392.16,284.15z"/>
			</g>
		</g>
		<g class="st2">
			<path class="st1" d="M450.82,329.62V204.93c0-18.05,6.78-33.74,20.34-47.09c12.69-12.36,28.6-18.54,47.74-18.54
				c17.39,0,32.43,6.34,45.12,19.03c2.4,2.41,4.59,5.25,6.56,8.53c1.97-3.17,4.16-5.96,6.56-8.37c13.67-12.8,28.71-19.2,45.12-19.2
				c18.92,0,34.83,6.18,47.74,18.54c13.56,13.13,20.34,28.82,20.34,47.09v109.92l-31.17,14.77h-1.64V193.77
				c0-12.58-3.42-21.79-10.25-27.64c-6.84-5.85-15.18-8.78-25.02-8.78s-18.19,2.93-25.02,8.78c-6.84,5.85-10.25,15.07-10.25,27.64
				v121.08l-31.17,14.77h-1.64V193.77c0-12.58-3.42-21.79-10.25-27.64c-6.84-5.85-15.18-8.78-25.02-8.78s-18.19,2.93-25.02,8.78
				c-6.84,5.85-10.25,15.07-10.25,27.64v121.08l-31.17,14.77H450.82z"/>
			<path class="st1" d="M864.26,314.85l-31.17,14.77h-1.64v-17.23c-8.75,9.3-20.51,13.95-35.27,13.95
				c-20.45,0-36.37-6.18-47.74-18.54c-11.38-12.36-17.06-26.96-17.06-43.8c0-17.5,6.18-32.37,18.54-44.63
				c11.92-11.81,27.34-17.72,46.27-17.72c13.45,0,25.21,4.65,35.27,13.95c0-19.36-3.39-33.9-10.17-43.64
				c-6.78-9.73-15.15-14.6-25.1-14.6h-39.87v-1.64l7.71-16.41h32.16c19.14,0,35.05,6.18,47.74,18.54
				c13.56,13.24,20.34,28.93,20.34,47.09V314.85z M763.53,263.99c0,17.06,2.95,28.77,8.86,35.11c5.69,6.13,13.67,9.19,23.95,9.19
				c10.94,0,19.25-3.12,24.94-9.35c6.23-6.78,9.35-18.7,9.35-35.77c0-15.97-3.34-27.34-10.01-34.13
				c-6.56-6.23-14.71-9.35-24.45-9.35c-10.17,0-18.16,3.23-23.95,9.68C766.42,235.83,763.53,247.37,763.53,263.99z"/>
			<path class="st1" d="M908.56,265.14l31.17-14.77h1.64v21c0,12.25,3.55,21.55,10.66,27.89c6.78,6.02,14.98,9.02,24.61,9.02
				c11.16,0,19.85-3.55,26.09-10.66c6.56-7.33,9.84-17.88,9.84-31.66c0-12.58-3.5-21.6-10.5-27.07c-6.02-4.7-14.55-7.05-25.59-7.05
				c-21.11,0-36.86-4.21-47.25-12.63c-9.19-7.44-13.78-17.61-13.78-30.52c0-15.2,6.94-27.78,20.84-37.73
				c10.83-7.76,24.28-11.65,40.36-11.65c15.42,0,28.82,4.81,40.2,14.44c8.75,7.55,14.16,16.3,16.24,26.25l-31.17,14.77h-1.64v-12.63
				c0-5.47-1.64-10.34-4.92-14.6c-5.25-6.78-12.74-10.17-22.48-10.17c-7.77,0-14.11,2.41-19.03,7.22
				c-4.81,4.92-7.22,12.63-7.22,23.13c0,11.05,2.95,18.6,8.86,22.64c3.28,2.3,10.28,3.45,21,3.45c23.19,0,40.58,4.87,52.17,14.6
				c10.72,8.97,16.08,21.93,16.08,38.88c0,14.22-6.29,27.78-18.87,40.69c-11.92,12.25-28.33,18.38-49.22,18.38
				c-18.92,0-34.84-5.25-47.74-15.75C915.34,299.54,908.56,284.39,908.56,265.14z"/>
			<path class="st1" d="M1110.68,329.62V160.63h-42.16v-1.64l7.71-16.41h34.45V83.52l31.17-14.77h1.64v73.83h42.16v1.64l-7.71,16.41
				h-34.45v154.22l-31.17,14.77H1110.68z"/>
			<path class="st1" d="M1350.54,250.38v10.34c0,18.05-6.78,33.74-20.34,47.09c-12.69,12.36-28.6,18.54-47.74,18.54
				c-18.92,0-34.84-6.18-47.74-18.54c-13.56-13.13-20.34-28.82-20.34-47.09v-55.78c0-18.15,6.78-33.85,20.34-47.09
				c12.69-12.36,28.6-18.54,47.74-18.54c18.7,0,34.62,6.18,47.74,18.54c13.56,12.8,20.34,26.91,20.34,42.33l-102.38,82.56
				c1.53,7.14,4.59,12.69,9.19,16.65c6.89,5.94,15.26,8.9,25.1,8.9s18.18-2.95,25.02-8.86c6.83-5.91,10.25-17.33,10.25-34.29
				l31.17-14.77H1350.54z M1247.18,257.59l70.55-56.86v-6.63c0-12.58-3.39-21.86-10.17-27.82c-6.89-5.96-15.26-8.94-25.1-8.94
				c-9.74,0-18.1,2.95-25.1,8.86c-6.78,5.69-10.17,14.88-10.17,27.56V257.59z"/>
			<path class="st1" d="M1399.76,329.62V204.93c0-18.05,6.78-33.74,20.34-47.09c12.69-12.36,28.6-18.54,47.74-18.54H1490v1.64
				l-7.88,16.41h-14.27c-9.84,0-18.19,2.93-25.02,8.78c-6.84,5.85-10.25,15.07-10.25,27.64v121.08l-31.17,14.77H1399.76z"/>
		</g>
		<g class="st2">
			<path class="st1" d="M599.36,460.21c-5.38,6.2-13.34,10.18-22.23,10.18c-16.15,0-29.25-13.1-29.25-29.25s13.1-29.25,29.25-29.25
				c16.15,0,29.25,13.1,29.25,29.25v29.25h-7.02V460.21z M577.13,463.37c11.93,0,22.23-9.36,22.23-22.23
				c0-12.29-9.95-22.23-22.23-22.23c-12.29,0-22.23,9.95-22.23,22.23S564.85,463.37,577.13,463.37z"/>
			<path class="st1" d="M690.62,425.46c-8.78,8.66-8.78,22.7,0,31.36c8.66,8.78,22.7,8.78,31.36,0l5.03,5.03
				c-11.47,11.35-29.95,11.35-41.42,0c-11.35-11.47-11.35-29.95,0-41.42c11.47-11.35,29.95-11.35,41.42,0l-5.03,5.03
				C713.32,416.69,699.28,416.69,690.62,425.46z"/>
			<path class="st1" d="M849.16,460.21c-5.38,6.2-13.34,10.18-22.23,10.18c-16.15,0-29.25-13.1-29.25-29.25s13.1-29.25,29.25-29.25
				c16.15,0,29.25,13.1,29.25,29.25v29.25h-7.02V460.21z M826.93,463.37c11.93,0,22.23-9.36,22.23-22.23
				c0-12.29-9.95-22.23-22.23-22.23c-12.29,0-22.23,9.95-22.23,22.23S814.64,463.37,826.93,463.37z"/>
			<path class="st1" d="M985.34,470.39h-7.02v-10.18c-5.38,6.2-13.34,10.18-22.23,10.18c-16.15,0-29.25-13.1-29.25-29.25
				s13.1-29.25,29.25-29.25c8.89,0,16.85,3.98,22.23,10.3v-39.55h7.02V470.39z M956.09,418.91c-12.29,0-22.23,9.95-22.23,22.23
				s9.95,22.23,22.23,22.23c12.29,0,22.23-9.95,22.23-22.23C978.32,428.39,968.14,418.91,956.09,418.91z"/>
			<path class="st1" d="M1085.26,463.37c6.08,0,11.7-2.46,15.68-6.43l5.03,4.8c-5.27,5.38-12.64,8.66-20.71,8.66
				c-16.15,0-29.25-13.1-29.25-29.25s13.1-29.25,29.25-29.25s29.25,13.1,29.25,29.25v3.51h-51.25
				C1065.02,455.3,1074.15,463.37,1085.26,463.37z M1063.26,437.63h43.88c-1.64-10.65-10.76-18.72-21.88-18.72
				S1065.02,426.99,1063.26,437.63z"/>
			<path class="st1" d="M1265.91,441.14c0-12.29-7.49-22.23-16.73-22.23s-16.61,9.95-16.61,22.23v29.25h-7.02v-29.25
				c0-12.29-7.49-22.23-16.73-22.23c-9.01,0-16.62,10.41-16.62,22.23v29.25h-7.02v-58.5h7.02v8.42c4.21-5.15,10.06-8.42,16.62-8.42
				c8.54,0,15.91,5.62,20.13,13.92c4.21-8.31,11.7-13.92,20.24-13.92c13.1,0,23.75,13.1,23.75,29.25v29.25h-7.02V441.14z"/>
			<path class="st1" d="M1356,499.65h-7.72l13.1-29.25l-25.97-58.5h7.49l22.23,49.96l22.23-49.96h7.61L1356,499.65z"/>
		</g>
	</g>
</g>
<g id="Layer_2_1_" class="st3">
	<g class="st4">
		<path class="st0" d="M1423.15,512.69H530.42c-41.25,0-74.69-33.44-74.69-74.69l0,0c0-41.25,33.44-74.69,74.69-74.69h892.73
			c41.25,0,74.69,33.44,74.69,74.69l0,0C1497.83,479.25,1464.4,512.69,1423.15,512.69z"/>
		<g>
			<path class="st5" d="M285.19,370.16c-26.44-9.57-75.45,69.75-124.87,91.84c-11.59,5.18-20.87,0.94-25.71-2.81
				c-42.59-32.95,62.78-184.71,21.8-191.95c-33.62-5.92-108.41,74.7-118.97,86.3c12.54,89.93,89.74,159.15,183.11,159.15
				c27.05,0,52.74-5.81,75.89-16.24c0.51-0.31,0.93-0.57,1.22-0.74C283.16,451.22,303.25,376.7,285.19,370.16z"/>
			<g>
				<path class="st0" d="M400.27,284.15c-18.78-83.22-107.79-164.4-228.48-134.77c-57.88,15.79-104.46,58.97-124.9,114.77
					c47.14-25.02,113.81-49.85,155.23-27.14c8.83,4.84,38.17,27.32-22.5,154.68c14.01-12.45,98.96-91.34,146.65-63.88
					c25.88,14.9,8.52,81.85,12,142.58c41.05-33.92,67.21-85.21,67.21-142.62C405.46,312.75,403.65,298.14,400.27,284.15z"/>
			</g>
		</g>
		<g>
			<text transform="matrix(1 0 0 1 434.3241 323.0554)" class="st5 st6 st7">master</text>
		</g>
		<text transform="matrix(1 0 0 1 550.1422 470.3947)" class="st1 st8 st9 st10">academy</text>
	</g>
</g>
</svg>
