<svg id="Layer_2" data-name="Layer 2" xmlns="http://www.w3.org/2000/svg" viewBox="0 0 1538.82 542.24"><defs><style>.cls-1{fill:#ff7c38;}.cls-2,.cls-3{fill:#3a3a3a;}.cls-3{font-size:336px;font-family:NovaSlim, Nova Slim;}.cls-4{font-size:117px;fill:#fff;font-family:Aspergit-Bold, Aspergit;font-weight:700;letter-spacing:0.51em;}.cls-5{letter-spacing:0.44em;}.cls-6{letter-spacing:0.51em;}</style></defs><rect class="cls-1" x="455.73" y="363.32" width="1042.1" height="149.37" rx="74.69"/><path class="cls-2" d="M285.19,370.16c-26.43-9.56-75.45,69.75-124.87,91.85a24.45,24.45,0,0,1-25.71-2.82C92,426.25,197.39,274.48,156.4,267.25c-33.61-5.93-108.4,74.69-119,86.29C50,443.47,127.17,512.69,220.55,512.69a184.13,184.13,0,0,0,75.89-16.25l1.23-.74C283.16,451.22,303.25,376.7,285.19,370.16Z"/><path class="cls-1" d="M400.27,284.15c-18.78-83.22-107.79-164.41-228.49-134.77A185.35,185.35,0,0,0,46.88,264.15C94,239.13,160.69,214.3,202.11,237c8.82,4.84,38.16,27.32-22.5,154.68,14-12.46,99-91.34,146.64-63.88,25.88,14.9,8.52,81.85,12,142.58a185.14,185.14,0,0,0,62-186.25Z"/><text class="cls-3" transform="translate(434.32 323.06)">master</text><text class="cls-4" transform="translate(550.14 470.39)">acade<tspan class="cls-5" x="640.8" y="0">m</tspan><tspan class="cls-6" x="791.73" y="0">y</tspan></text></svg>