<svg width="20" height="22" viewBox="0 0 20 22" fill="none" xmlns="http://www.w3.org/2000/svg">
<path d="M16.2338 1.04453C16.2044 0.868268 16.1376 0.700355 16.0378 0.552108C15.938 0.403862 15.8076 0.278728 15.6554 0.185143C15.5032 0.0915578 15.3327 0.0316974 15.1554 0.00959722C14.978 -0.012503 14.798 0.00367089 14.6275 0.0570282L5.8775 2.79078C5.62308 2.87021 5.4007 3.02888 5.24284 3.24364C5.08497 3.4584 4.99989 3.71799 5 3.98453V14.1495C4.43683 13.7271 3.74754 13.5073 3.04381 13.5256C2.34008 13.5439 1.66314 13.7992 1.12267 14.2503C0.582196 14.7014 0.209855 15.3217 0.0659727 16.0108C-0.0779099 16.6999 0.015095 17.4174 0.329919 18.0471C0.644742 18.6767 1.16294 19.1816 1.80056 19.48C2.43817 19.7783 3.15785 19.8527 3.84298 19.6909C4.52812 19.5292 5.13857 19.1409 5.57544 18.5888C6.01231 18.0368 6.25 17.3535 6.25 16.6495V7.73453L15 4.99953V8.55203C15.4229 8.5902 15.8414 8.66761 16.25 8.78328V1.24953C16.25 1.17953 16.2438 1.11078 16.2338 1.04453ZM20 15.3995C20 16.8914 19.4074 18.3221 18.3525 19.377C17.2976 20.4319 15.8668 21.0245 14.375 21.0245C12.8832 21.0245 11.4524 20.4319 10.3975 19.377C9.34263 18.3221 8.75 16.8914 8.75 15.3995C8.75 13.9077 9.34263 12.4769 10.3975 11.4221C11.4524 10.3672 12.8832 9.77453 14.375 9.77453C15.8668 9.77453 17.2976 10.3672 18.3525 11.4221C19.4074 12.4769 20 13.9077 20 15.3995ZM17.1712 14.8545L13.4288 12.792C13.3336 12.7394 13.2263 12.7125 13.1175 12.714C13.0087 12.7155 12.9022 12.7454 12.8085 12.8007C12.7149 12.856 12.6372 12.9348 12.5833 13.0293C12.5294 13.1238 12.5012 13.2307 12.5013 13.3395V17.4645C12.5012 17.5733 12.5294 17.6802 12.5833 17.7747C12.6372 17.8692 12.7149 17.948 12.8085 18.0033C12.9022 18.0586 13.0087 18.0885 13.1175 18.09C13.2263 18.0916 13.3336 18.0647 13.4288 18.012L17.1712 15.9495C17.2692 15.8956 17.351 15.8163 17.4079 15.72C17.4648 15.6237 17.4948 15.5139 17.4948 15.402C17.4948 15.2902 17.4648 15.1803 17.4079 15.084C17.351 14.9877 17.2692 14.9085 17.1712 14.8545Z" fill="#616161"/>
</svg>
